<?xml version="1.0" encoding="UTF-8" standalone="no"?>
<svg
   xmlns:dc="http://purl.org/dc/elements/1.1/"
   xmlns:cc="http://creativecommons.org/ns#"
   xmlns:rdf="http://www.w3.org/1999/02/22-rdf-syntax-ns#"
   xmlns:svg="http://www.w3.org/2000/svg"
   xmlns="http://www.w3.org/2000/svg"
   xmlns:sodipodi="http://sodipodi.sourceforge.net/DTD/sodipodi-0.dtd"
   xmlns:inkscape="http://www.inkscape.org/namespaces/inkscape"
   version="1.0"
   width="1991.000000pt"
   height="3601.000000pt"
   viewBox="0 0 1991.000000 3601.000000"
   preserveAspectRatio="xMidYMid meet"
   id="svg1570"
   sodipodi:docname="back.svg"
   inkscape:version="1.0 (b51213c273, 2020-08-10)">
  <metadata
     id="metadata1576">
    <rdf:RDF>
      <cc:Work
         rdf:about="">
        <dc:format>image/svg+xml</dc:format>
        <dc:type
           rdf:resource="http://purl.org/dc/dcmitype/StillImage" />
        <dc:title></dc:title>
      </cc:Work>
    </rdf:RDF>
  </metadata>
  <defs
     id="defs1574" />
  <sodipodi:namedview
     pagecolor="#ffffff"
     bordercolor="#666666"
     borderopacity="1"
     objecttolerance="10"
     gridtolerance="10"
     guidetolerance="10"
     inkscape:pageopacity="0"
     inkscape:pageshadow="2"
     inkscape:window-width="1366"
     inkscape:window-height="717"
     id="namedview1572"
     showgrid="false"
     inkscape:zoom="0.11330186"
     inkscape:cx="442.06264"
     inkscape:cy="2160.5933"
     inkscape:window-x="0"
     inkscape:window-y="27"
     inkscape:window-maximized="1"
     inkscape:current-layer="svg1570" />
  <g
     transform="matrix(0.1018877,0,0,-0.10001058,-26.984335,3609.1277)"
     fill="#000000"
     stroke="none"
     id="g1568">
    <path
       d="m 990,32927 v -3003 l -43,-11 c -66,-18 -160,-86 -201,-146 -52,-76 -69,-130 -70,-222 -1,-109 28,-187 102,-266 159,-173 419,-172 575,1 57,63 85,123 96,206 12,79 1,158 -31,223 -43,90 -147,178 -250,211 l -38,12 v 2999 2999 h -70 -70 z m 161,-3151 c 134,-48 200,-208 141,-341 -23,-51 -37,-66 -107,-113 -35,-24 -50,-27 -121,-27 -72,0 -86,3 -129,30 -169,104 -161,346 14,437 60,31 138,37 202,14 z"
       id="path1482" />
    <path
       d="m 2278,31374 -3,-4555 -51,-18 c -220,-74 -325,-296 -243,-515 29,-79 112,-166 197,-208 62,-31 74,-33 167,-33 95,0 105,2 169,34 77,40 151,114 186,187 45,96 46,224 2,324 -39,91 -148,186 -247,215 l -40,12 -3,4557 -2,4556 h -65 -65 z m 146,-4705 c 47,-13 121,-79 148,-133 13,-26 21,-61 22,-100 4,-227 -267,-341 -428,-181 -156,156 -47,423 174,425 25,0 62,-5 84,-11 z"
       id="path1484" />
    <path
       d="m 3560,33746 v -2183 l -46,-13 c -114,-32 -227,-144 -260,-259 -24,-80 -15,-209 19,-283 51,-114 180,-207 304,-221 210,-24 400,121 433,330 11,65 1,147 -24,208 -42,99 -150,197 -250,225 l -46,13 v 2183 2184 h -65 -65 z m 166,-2341 c 87,-36 149,-133 147,-230 -1,-103 -51,-183 -141,-226 -56,-26 -149,-30 -202,-7 -91,39 -152,131 -152,228 0,185 177,305 348,235 z"
       id="path1486" />
    <path
       d="m 4838,32263 -3,-3668 -637,-3 -638,-2 -2,-2568 -3,-2567 H 2340 1126 l -7,32 c -22,107 -130,222 -252,267 -76,29 -214,20 -292,-18 -193,-95 -275,-327 -184,-521 29,-63 120,-154 182,-183 199,-93 424,-15 522,181 14,28 25,61 25,74 v 23 h 1285 1285 l 2,2573 3,2572 638,3 637,2 v 3735 3735 h -65 -65 z M 840,23613 c 47,-19 108,-79 131,-128 43,-92 12,-228 -67,-294 -190,-157 -469,26 -400,263 43,147 192,218 336,159 z"
       id="path1488" />
    <path
       d="m 6120,31195 v -4735 h -640 -640 l -2,-2622 -3,-2623 -637,-3 -638,-2 -2,-1163 -3,-1162 h -570 -570 l -3,642 -2,643 -642,2 -642,3 -6,31 c -20,97 -116,205 -225,255 -55,25 -77,29 -150,29 -224,0 -387,-162 -389,-385 -1,-95 21,-162 74,-232 146,-194 419,-215 588,-46 48,48 102,141 105,182 l 1,21 h 578 578 v -645 -645 h 705 705 v 1165 1165 h 640 640 l 2,2623 3,2622 643,3 642,2 v 4805 4805 h -70 -70 z M 845,20330 c 91,-41 144,-124 145,-225 0,-116 -69,-209 -179,-241 -237,-70 -417,215 -255,404 75,88 181,110 289,62 z"
       id="path1490" />
    <path
       d="m 7400,33225 v -2705 h 645 c 608,0 645,-1 645,-17 0,-10 14,-47 30,-82 38,-79 103,-143 190,-185 59,-28 74,-31 160,-31 82,0 103,4 152,27 159,74 248,224 235,391 -11,136 -103,268 -225,325 -50,23 -69,27 -162,27 -94,0 -111,-3 -160,-27 -104,-52 -174,-128 -210,-231 l -18,-52 -571,-3 -571,-2 v 2635 2635 h -70 -70 z m 1775,-2406 c 92,-43 153,-153 142,-251 -16,-131 -121,-228 -248,-228 -100,0 -210,78 -237,168 -27,89 -2,197 58,261 65,67 198,91 285,50 z"
       id="path1492" />
    <path
       d="m 8680,34471 v -1458 l -29,-6 c -87,-18 -207,-112 -250,-196 -56,-109 -57,-245 -2,-354 38,-78 93,-135 173,-178 61,-33 67,-34 173,-34 93,0 118,3 159,23 234,107 307,397 153,601 -39,50 -121,108 -183,127 l -54,18 v 1458 1458 h -70 -70 z m 181,-1624 c 42,-21 72,-46 90,-72 75,-109 59,-250 -36,-333 -50,-44 -98,-62 -167,-62 -177,0 -289,157 -236,333 18,61 83,125 148,147 82,28 128,25 201,-13 z"
       id="path1494" />
    <path
       d="m 11240,34470 c 0,-1384 -1,-1460 -17,-1460 -37,0 -141,-59 -191,-108 -31,-30 -64,-76 -80,-109 -23,-51 -26,-71 -27,-163 0,-101 2,-109 34,-173 39,-78 105,-143 182,-183 69,-35 197,-45 280,-21 199,58 324,285 265,481 -36,120 -138,227 -252,262 l -54,18 v 1458 1458 h -70 -70 z m 179,-1621 c 93,-47 140,-121 140,-224 1,-93 -68,-195 -155,-231 -40,-17 -124,-18 -178,-3 -48,13 -123,82 -147,134 -21,46 -24,130 -7,187 17,59 79,123 141,147 77,29 132,27 206,-10 z"
       id="path1496" />
    <path
       d="m 12520,33295 v -2635 h -575 c -541,0 -575,1 -575,18 0,9 -11,41 -25,70 -72,155 -210,239 -379,230 -145,-8 -260,-83 -327,-215 -32,-64 -34,-72 -34,-172 0,-94 4,-113 27,-164 33,-70 116,-154 184,-187 213,-100 472,9 541,227 l 17,53 h 643 643 v 2705 2705 h -70 -70 z m -1424,-2479 c 63,-29 110,-85 130,-155 20,-66 14,-123 -21,-190 -29,-59 -76,-97 -141,-117 -64,-19 -103,-18 -168,7 -178,66 -213,311 -62,430 68,54 178,64 262,25 z"
       id="path1498" />
    <path
       d="m 13800,31125 v -4805 h 640 640 v -2625 -2625 h 640 640 v -1165 -1165 h 710 710 v 645 645 h 573 572 l 19,-52 c 36,-103 101,-175 209,-230 56,-29 71,-32 157,-32 87,-1 101,2 162,31 256,121 311,449 107,637 -91,85 -133,101 -264,101 -101,0 -115,-2 -168,-29 -78,-38 -147,-108 -186,-188 -17,-36 -31,-73 -31,-82 0,-15 -59,-16 -645,-16 h -645 v -645 -645 h -570 -570 v 1165 1165 h -640 -640 v 2625 2625 h -640 -640 v 4735 4735 h -70 -70 z m 5615,-10794 c 190,-88 196,-355 10,-454 -56,-30 -164,-30 -220,0 -237,125 -156,473 110,473 37,0 75,-7 100,-19 z"
       id="path1500" />
    <path
       d="m 15080,32195 v -3735 l 623,-1 c 342,-1 630,-1 640,0 16,2 17,-126 17,-2573 v -2576 h 1283 1282 l 19,-52 c 65,-183 249,-293 433,-259 132,24 231,100 290,220 25,51 28,66 28,166 0,104 -2,113 -32,171 -36,70 -118,150 -190,185 -42,21 -62,24 -158,24 -101,0 -115,-2 -168,-29 -78,-38 -147,-108 -186,-188 -17,-36 -31,-73 -31,-82 0,-15 -106,-16 -1215,-16 h -1215 v 2570 2570 l -617,1 c -340,1 -627,2 -638,3 -20,1 -20,9 -23,3669 l -2,3667 h -70 -70 z m 4335,-8584 c 160,-74 196,-278 72,-409 -36,-37 -121,-72 -175,-72 -163,2 -284,165 -239,320 33,111 126,180 242,180 37,0 75,-7 100,-19 z"
       id="path1502" />
    <path
       d="m 16360,33746 v -2183 l -60,-22 c -101,-37 -186,-117 -232,-218 -31,-69 -31,-216 0,-293 64,-163 253,-268 427,-240 122,20 238,110 293,227 24,51 27,70 27,158 0,93 -2,105 -33,166 -49,102 -139,179 -244,211 l -38,11 v 2184 2183 h -70 -70 z m 187,-2352 c 131,-63 174,-235 88,-360 -118,-171 -382,-133 -441,62 -42,139 23,268 158,316 65,22 122,17 195,-18 z"
       id="path1504" />
    <path
       d="m 17640,31370 c 0,-4336 -1,-4560 -17,-4560 -37,0 -144,-61 -190,-107 -25,-26 -60,-77 -77,-113 -28,-58 -31,-75 -31,-160 0,-88 3,-101 34,-165 42,-85 106,-149 191,-189 59,-28 74,-31 160,-31 118,1 182,24 261,94 129,115 168,305 94,458 -51,104 -139,175 -267,217 -17,5 -18,231 -18,4561 v 4555 h -70 -70 z m 174,-4710 c 50,-24 101,-71 123,-114 21,-40 29,-153 14,-198 -6,-19 -28,-54 -47,-77 -153,-179 -444,-73 -444,162 0,174 197,300 354,227 z"
       id="path1506" />
    <path
       d="m 18920,32928 v -3003 l -57,-18 c -110,-35 -200,-128 -244,-252 -62,-174 33,-385 211,-469 59,-28 74,-31 160,-31 120,1 187,25 265,96 170,156 169,425 -2,579 -50,43 -83,61 -180,95 -10,3 -13,613 -13,3005 v 3000 h -70 -70 z m 152,-3150 c 53,-16 126,-82 149,-136 26,-60 25,-149 -2,-207 -100,-212 -415,-181 -469,46 -47,193 129,355 322,297 z"
       id="path1508" />
    <path
       d="m 7349,29325 c -107,-34 -220,-145 -252,-248 -24,-75 -22,-192 3,-259 43,-112 134,-201 242,-235 l 58,-18 v -1927 -1928 h -570 -570 v 304 305 l 23,6 c 201,62 322,250 287,445 -24,130 -98,228 -218,287 -71,36 -81,38 -166,37 -82,0 -98,-3 -160,-33 -82,-40 -154,-110 -193,-189 -26,-52 -28,-67 -28,-167 0,-101 2,-115 28,-165 50,-97 143,-176 240,-205 l 42,-12 3,-193 2,-192 -32,22 c -82,54 -118,65 -223,65 -89,0 -106,-4 -157,-28 -247,-120 -311,-423 -131,-617 37,-40 77,-70 121,-92 62,-31 74,-33 167,-33 105,0 101,-1 248,73 4,2 7,-1005 7,-2237 v -2241 h -640 -640 l -2,-1246 -3,-1246 -55,-20 c -62,-23 -150,-86 -186,-134 -48,-63 -76,-150 -75,-239 1,-95 17,-148 69,-223 85,-125 230,-186 383,-161 208,33 355,240 319,448 -27,155 -132,268 -302,325 -17,5 -18,70 -18,1181 v 1175 h 645 645 v 2430 2430 h 570 570 l -2,-561 -3,-562 -40,-12 c -103,-30 -197,-111 -241,-208 -26,-56 -29,-72 -29,-167 0,-93 3,-111 27,-163 35,-74 115,-152 194,-189 277,-129 592,108 545,409 -20,131 -95,233 -213,291 -35,17 -71,33 -80,36 -17,5 -18,41 -18,566 v 560 l 571,-2 572,-3 12,-42 c 29,-98 111,-190 215,-241 49,-24 66,-27 160,-27 93,0 112,4 162,27 172,80 264,285 210,464 -36,118 -107,199 -219,252 -50,23 -70,27 -153,27 -86,0 -101,-3 -160,-31 -105,-50 -186,-142 -212,-239 l -12,-45 h -573 -573 v 1930 c 0,1831 1,1930 18,1930 40,0 128,53 186,113 120,122 146,289 69,447 -35,72 -103,136 -183,174 -53,25 -80,31 -150,33 -55,2 -101,-2 -131,-12 z m 228,-149 c 51,-24 102,-80 125,-136 19,-46 14,-151 -9,-196 -48,-92 -151,-151 -247,-141 -179,18 -281,199 -202,361 60,121 206,171 333,112 z M 6274,25940 c 148,-56 208,-240 121,-371 -48,-74 -117,-111 -205,-111 -101,0 -183,49 -226,138 -67,137 -3,296 138,345 69,24 105,24 172,-1 z m -335,-1061 c 59,-18 112,-61 143,-116 56,-99 34,-242 -47,-311 -109,-92 -280,-80 -364,26 -28,37 -61,116 -61,150 0,39 28,124 53,159 58,83 175,122 276,92 z m 3216,-6 c 104,-35 175,-151 162,-264 -15,-124 -118,-219 -239,-219 -81,0 -128,19 -183,75 -190,190 4,496 260,408 z M 7565,23291 c 172,-78 204,-306 59,-421 -77,-61 -156,-74 -248,-40 -97,37 -158,126 -158,231 0,100 56,188 147,230 53,24 147,24 200,0 z M 4977,17205 c 67,-20 136,-82 160,-143 65,-171 -50,-342 -232,-344 -102,-2 -185,51 -225,144 -59,137 12,300 150,343 59,18 86,18 147,0 z"
       id="path1510" />
    <path
       d="m 12453,29316 c -162,-61 -262,-216 -250,-388 11,-161 106,-290 257,-345 l 55,-21 3,-1926 2,-1926 h -573 -574 l -12,43 c -45,151 -188,265 -346,275 -173,11 -325,-85 -391,-249 -23,-56 -26,-75 -22,-154 3,-69 10,-103 29,-145 38,-81 108,-153 187,-192 62,-31 74,-33 167,-33 91,0 106,3 165,31 37,17 86,52 114,80 47,47 106,150 106,187 0,16 34,17 575,17 h 575 l -2,-561 -3,-562 -42,-12 c -192,-57 -310,-273 -259,-473 28,-110 108,-204 216,-256 58,-27 75,-31 155,-31 119,1 188,27 268,103 114,110 155,261 107,402 -40,119 -122,205 -233,245 l -62,23 -3,561 -2,561 h 570 570 v -2430 -2430 h 640 640 v -1178 -1179 l -42,-13 c -101,-30 -200,-117 -245,-218 -37,-80 -39,-220 -5,-304 47,-115 172,-215 299,-238 167,-30 346,67 421,228 24,50 27,69 27,157 0,93 -2,105 -32,166 -50,102 -147,187 -240,211 l -43,10 v 1249 1249 h -640 -640 v 2240 c 0,1232 2,2240 5,2240 3,0 22,-11 43,-24 104,-68 258,-75 375,-18 168,83 254,278 202,458 -73,256 -382,366 -596,213 l -29,-21 2,193 3,193 30,6 c 115,24 234,145 271,275 20,70 15,179 -11,241 -43,103 -139,196 -240,231 -71,25 -193,23 -266,-6 -79,-30 -170,-115 -209,-195 -102,-207 2,-457 222,-537 l 58,-22 v -303 -304 h -570 -570 v 1930 c 0,1867 1,1930 18,1930 35,0 143,62 189,109 25,25 60,75 77,111 28,58 31,75 31,160 0,91 -2,100 -38,172 -69,140 -176,208 -337,215 -71,3 -95,-1 -147,-21 z m 218,-128 c 51,-15 114,-70 140,-120 48,-94 30,-217 -42,-289 -52,-52 -92,-71 -164,-77 -150,-12 -275,113 -263,263 14,169 166,272 329,223 z m 1300,-3253 c 133,-67 184,-217 119,-348 -72,-144 -283,-175 -397,-57 -133,136 -74,364 108,419 45,14 129,7 170,-14 z m -2868,-1074 c 62,-30 112,-97 128,-171 23,-112 -27,-218 -131,-273 -49,-26 -63,-28 -125,-25 -78,5 -116,21 -164,70 -48,48 -71,103 -71,173 0,148 114,260 255,253 37,-2 79,-13 108,-27 z m 3203,1 c 113,-58 166,-206 115,-324 -22,-53 -94,-121 -145,-138 -49,-16 -151,-9 -198,14 -88,42 -132,118 -133,226 0,64 4,82 28,122 51,87 136,131 238,124 30,-2 73,-13 95,-24 z m -1614,-1571 c 131,-56 187,-231 113,-357 -97,-165 -334,-163 -432,4 -24,40 -28,58 -28,122 0,58 6,85 22,116 26,50 95,111 138,123 53,16 141,12 187,-8 z m 2537,-6087 c 198,-58 231,-343 53,-450 -107,-64 -221,-50 -308,40 -77,79 -95,177 -49,271 38,80 71,110 147,136 66,23 90,23 157,3 z"
       id="path1512" />
    <path
       d="m 8650,29276 c -74,-20 -121,-47 -175,-100 -207,-204 -127,-554 148,-647 l 52,-18 3,-1565 2,-1566 h 628 c 345,0 633,-4 640,-8 10,-7 12,-266 10,-1263 l -3,-1254 -637,-3 -638,-2 v -1310 -1310 h -640 -640 v -1480 -1480 h -640 -640 l -2,-1341 -3,-1341 -55,-20 c -112,-41 -202,-133 -242,-246 -30,-86 -23,-217 17,-297 119,-244 439,-296 628,-102 153,157 152,393 -4,549 -47,47 -155,108 -192,108 -16,0 -17,65 -15,1273 l 3,1272 643,3 642,2 v 1480 1480 h 638 637 l 3,1314 2,1315 1208,-2 1207,-2 3,-1312 2,-1313 625,-1 c 344,-1 631,-2 638,-3 9,-1 13,-305 15,-1478 l 2,-1478 h 640 640 v -1274 -1274 l -27,-6 c -85,-21 -191,-102 -237,-181 -67,-114 -72,-266 -13,-381 28,-55 105,-130 164,-161 201,-107 434,-31 535,175 31,62 33,74 33,167 0,90 -3,106 -29,160 -51,102 -146,187 -243,216 l -43,12 v 1344 1343 h -640 -640 v 1480 1480 h -640 -640 v 1310 1310 h -640 -640 l 2,1263 3,1262 h 638 637 v 1568 c 0,1245 3,1568 13,1571 113,36 188,88 241,169 101,154 84,346 -43,480 -61,64 -125,101 -206,117 -171,35 -352,-55 -431,-215 -26,-55 -29,-69 -29,-165 0,-93 3,-112 26,-161 47,-99 132,-176 232,-210 l 52,-18 v -1498 -1498 l -1207,-2 -1208,-2 v 1504 c 0,1477 0,1505 19,1505 32,0 110,38 156,76 97,79 152,208 143,335 -17,233 -263,407 -488,345 z m 178,-142 c 55,-18 121,-74 148,-125 21,-42 29,-125 15,-176 -17,-63 -68,-124 -131,-156 -49,-25 -63,-28 -125,-24 -107,6 -176,52 -217,144 -57,129 6,281 138,333 61,24 107,25 172,4 z m 2563,1 c 60,-21 104,-58 136,-113 24,-40 28,-58 28,-122 0,-57 -6,-85 -22,-115 -57,-108 -182,-159 -304,-125 -48,14 -127,84 -150,135 -28,60 -25,153 6,214 57,113 188,167 306,126 z M 6297,14419 c 58,-28 110,-92 130,-159 51,-175 -114,-350 -291,-310 -67,15 -99,33 -138,80 -42,48 -58,98 -58,174 0,181 189,295 357,215 z m 7677,7 c 38,-17 102,-79 123,-119 8,-17 18,-56 20,-88 17,-179 -146,-314 -317,-263 -68,20 -149,97 -168,160 -30,101 3,207 86,278 60,52 177,66 256,32 z"
       id="path1514" />
    <path
       d="m 640,22485 c -191,-54 -318,-255 -281,-446 17,-85 52,-151 112,-211 85,-85 186,-119 314,-107 170,17 295,129 341,307 3,9 255,12 1218,12 h 1214 l 7,-27 c 26,-105 111,-209 212,-259 54,-27 66,-29 173,-29 105,0 119,2 165,26 84,45 141,103 182,187 36,71 38,82 38,166 0,81 -4,98 -31,156 -38,81 -83,133 -151,177 -141,90 -320,79 -455,-29 -50,-39 -110,-130 -128,-192 l -13,-46 -1215,2 -1215,3 -12,47 c -24,94 -109,192 -210,239 -77,37 -185,46 -265,24 z m 176,-140 c 214,-64 238,-370 36,-463 -107,-49 -219,-27 -292,56 -127,143 -64,357 120,413 40,12 83,10 136,-6 z m 3217,-5 c 125,-47 190,-176 153,-304 -71,-244 -416,-238 -480,8 -34,130 31,254 156,297 69,24 105,24 171,-1 z"
       id="path1516" />
    <path
       d="m 16023,22490 c -110,-26 -217,-114 -267,-220 -28,-59 -31,-74 -31,-165 0,-88 3,-107 27,-157 35,-76 109,-153 183,-192 57,-29 65,-31 175,-31 107,0 119,2 171,28 97,49 175,141 204,240 l 12,42 1215,3 1216,2 10,-42 c 28,-108 128,-216 236,-257 72,-27 205,-29 268,-4 118,46 210,143 243,257 25,86 17,206 -18,277 -53,109 -150,186 -272,216 -186,46 -381,-65 -452,-257 l -21,-55 h -1212 -1213 l -12,40 c -58,196 -269,321 -462,275 z m 194,-158 c 217,-111 177,-422 -61,-472 -67,-14 -127,0 -191,42 -62,41 -96,102 -102,182 -11,129 55,224 187,267 38,13 123,3 167,-19 z m 3210,-4 c 182,-86 178,-362 -5,-446 -143,-65 -303,4 -346,149 -20,66 -20,82 0,148 44,148 206,217 351,149 z"
       id="path1518" />
    <path
       d="m 9889,22090 c -114,-19 -234,-111 -286,-219 -36,-75 -44,-203 -18,-282 42,-125 131,-214 254,-255 l 51,-16 v -1214 -1214 l -27,-6 c -99,-23 -214,-121 -261,-222 -24,-50 -27,-69 -27,-162 0,-96 3,-110 29,-165 61,-124 188,-212 320,-222 280,-21 484,234 406,508 -16,58 -85,155 -137,193 -26,20 -74,46 -105,57 l -58,22 v 1212 1212 l 60,22 c 144,53 244,184 257,339 16,196 -124,374 -322,411 -65,12 -69,12 -136,1 z m 167,-155 c 152,-63 201,-266 92,-390 -22,-25 -53,-52 -68,-60 -168,-87 -370,31 -370,216 0,185 177,305 346,234 z m -15,-3196 c 170,-57 222,-286 95,-413 -159,-159 -427,-48 -426,176 1,103 54,188 145,229 46,21 135,25 186,8 z"
       id="path1520" />
    <path
       d="m 3509,18521 c -105,-33 -194,-113 -241,-217 -20,-41 -23,-66 -23,-159 0,-101 2,-115 28,-166 51,-101 158,-188 260,-213 l 27,-6 v -1470 -1470 h -640 -640 l -2,-332 -3,-331 -55,-19 c -106,-35 -199,-126 -240,-235 -29,-77 -25,-223 8,-294 32,-69 116,-155 186,-192 58,-30 67,-32 171,-32 104,0 113,2 171,32 33,17 82,53 107,79 202,204 118,550 -156,643 l -52,18 v 259 259 l 638,3 c 598,2 637,3 637,20 0,9 0,702 0,1539 v 1521 l 56,18 c 63,19 141,73 186,128 76,92 102,245 64,368 -21,65 -91,158 -151,200 -91,63 -228,83 -336,49 z m 216,-145 c 162,-75 201,-274 79,-400 -121,-125 -331,-93 -401,61 -61,133 -9,279 122,339 66,31 134,31 200,0 z M 2456,13992 c 127,-65 176,-218 108,-342 -47,-86 -122,-130 -222,-130 -138,0 -245,110 -244,250 0,114 69,204 182,241 40,13 133,3 176,-19 z"
       id="path1524" />
    <path
       d="m 16337,18530 c -107,-27 -206,-110 -259,-218 -31,-62 -33,-74 -32,-162 1,-111 16,-159 74,-236 47,-62 115,-112 185,-136 l 50,-17 3,-1540 2,-1541 h 640 640 v -265 c 0,-251 -1,-265 -18,-265 -11,0 -46,-14 -79,-30 -75,-37 -155,-120 -191,-197 -23,-50 -27,-71 -27,-153 0,-86 3,-101 32,-162 39,-83 108,-154 188,-194 55,-27 69,-29 170,-29 101,0 114,2 163,28 64,34 127,89 159,141 128,201 53,466 -160,567 -34,16 -70,29 -79,29 -17,0 -18,23 -18,335 v 335 h -640 -640 v 1470 1470 l 28,6 c 98,23 212,121 261,224 23,48 26,68 26,155 0,92 -3,106 -32,167 -63,134 -190,219 -332,224 -42,2 -93,-1 -114,-6 z m 210,-158 c 73,-38 121,-111 130,-198 8,-74 -12,-135 -60,-191 -53,-59 -104,-82 -185,-83 -224,-1 -336,267 -177,425 23,23 62,50 86,58 58,22 151,16 206,-11 z m 1278,-4380 c 77,-39 123,-109 132,-198 8,-74 -12,-135 -60,-191 -53,-59 -105,-83 -182,-83 -287,0 -350,387 -80,488 44,17 144,8 190,-16 z"
       id="path1526" />
    <path
       d="m 2264,18390 c -103,-21 -225,-115 -272,-211 -102,-211 3,-463 228,-546 l 55,-21 3,-1091 2,-1091 H 1635 990 v -1210 -1210 h 1285 1285 l 6,-27 c 28,-113 113,-215 223,-266 58,-27 77,-31 157,-31 85,-1 96,2 167,37 204,101 281,323 182,524 -110,224 -380,288 -584,139 -58,-43 -122,-134 -141,-200 l -13,-46 -1211,2 -1211,3 v 1070 1070 l 638,3 637,2 v 1164 1164 l 33,7 c 136,30 262,169 287,316 46,269 -196,502 -466,449 z m 152,-145 c 107,-31 177,-126 177,-240 0,-114 -70,-209 -177,-240 -63,-19 -80,-19 -147,1 -39,12 -67,29 -101,63 -132,132 -82,351 94,412 65,22 90,23 154,4 z m 1641,-4946 c 122,-58 176,-216 114,-337 -30,-58 -92,-109 -157,-128 -179,-52 -348,104 -314,288 31,163 204,249 357,177 z"
       id="path1528" />
    <path
       d="m 17625,18387 c -78,-21 -135,-55 -196,-118 -181,-184 -126,-495 108,-612 26,-13 60,-27 76,-31 l 27,-6 v -1165 -1165 h 640 640 v -1075 -1075 l -1211,2 -1212,3 -12,42 c -54,183 -251,307 -433,274 -135,-25 -231,-96 -294,-219 -31,-62 -33,-72 -33,-166 0,-93 3,-106 31,-166 97,-201 330,-283 524,-186 102,51 165,123 201,230 l 18,51 1280,3 1281,2 v 1210 1210 h -640 -640 v 1093 1093 l 54,18 c 58,18 146,78 182,124 12,15 34,52 50,82 39,75 46,207 16,293 -66,186 -274,301 -457,254 z m 161,-142 c 112,-33 179,-133 172,-255 -9,-164 -158,-270 -314,-225 -81,23 -156,98 -174,174 -31,131 37,259 162,302 65,22 90,23 154,4 z m -1579,-4941 c 52,-19 128,-98 142,-150 47,-168 -66,-326 -234,-328 -135,-2 -239,88 -252,218 -8,73 2,114 38,169 66,101 182,135 306,91 z"
       id="path1530" />
    <path
       d="m 8658,17024 c -73,-17 -137,-55 -193,-115 -145,-155 -143,-387 5,-539 47,-49 155,-110 193,-110 16,0 17,-84 17,-1620 v -1620 h 640 640 V 11095 9170 H 9320 8680 V 7170 5170 H 8040 7400 V 2595 20 h 70 70 v 2505 2505 h 640 640 v 2000 2000 h 353 c 195,0 739,3 1210,7 l 857,6 V 7047 5050 l 625,-1 c 344,-1 631,-2 638,-3 9,-1 13,-509 15,-2499 l 2,-2497 h 70 70 v 2565 2565 l -637,2 -638,3 -3,1998 -2,1997 h -640 -640 v 1925 1925 h 640 640 v 1614 1614 l 33,7 c 91,20 200,113 249,213 30,61 33,74 33,162 -1,128 -25,190 -109,274 -75,77 -137,107 -236,115 -135,12 -237,-26 -325,-120 -90,-96 -125,-232 -95,-366 13,-58 63,-139 119,-192 36,-34 146,-91 176,-91 13,0 15,-168 15,-1545 v -1545 h -353 c -195,0 -739,-3 -1210,-7 l -857,-6 v 1550 1550 l 43,12 c 101,30 211,131 247,228 74,198 -6,405 -192,499 -65,33 -182,45 -260,28 z m 188,-149 c 45,-18 102,-72 125,-118 99,-193 -84,-414 -293,-353 -107,31 -179,129 -179,241 0,178 181,298 347,230 z m 2571,-7 c 56,-26 91,-63 121,-127 20,-44 24,-64 20,-115 -6,-71 -23,-109 -70,-155 -54,-54 -104,-75 -178,-74 -108,0 -189,51 -229,144 -93,216 123,427 336,327 z"
       id="path1532" />
    <path
       d="m 4830,15231 c -122,-24 -239,-123 -286,-241 -24,-61 -26,-78 -22,-162 5,-114 35,-186 110,-261 45,-45 156,-107 193,-107 13,0 15,-223 15,-2070 v -2070 h 710 710 v 810 810 h 570 570 V 9156 6372 l -27,-7 c -105,-26 -203,-107 -256,-209 -39,-78 -49,-203 -22,-287 89,-280 436,-368 641,-164 124,123 153,291 80,451 -42,92 -154,185 -248,208 l -28,6 v 2855 2855 h -710 -710 l -2,-812 -3,-813 h -570 -570 l -2,2002 -3,2001 33,7 c 181,40 322,255 288,440 -41,223 -247,368 -461,326 z m 144,-145 c 164,-49 233,-242 138,-381 -142,-206 -454,-106 -454,146 0,105 72,203 172,234 59,18 87,18 144,1 z M 7519,6229 c 140,-30 227,-176 187,-313 -23,-79 -90,-148 -165,-170 -68,-20 -84,-20 -150,0 -102,30 -173,129 -173,239 0,110 71,208 172,237 68,20 68,20 129,7 z"
       id="path1536" />
    <path
       d="m 15060,15225 c -118,-29 -228,-123 -271,-233 -35,-86 -33,-225 4,-305 46,-102 157,-197 260,-222 l 27,-7 v -2004 -2004 h -570 -570 v 815 815 h -710 -710 V 9225 6370 l -27,-6 c -104,-26 -212,-117 -261,-221 -23,-51 -27,-71 -27,-158 0,-95 2,-105 33,-167 61,-120 163,-196 294,-221 69,-13 156,1 226,35 67,32 158,125 188,195 49,109 41,252 -18,353 -50,83 -153,163 -240,184 l -28,6 v 2785 2785 h 570 570 v -810 -810 h 710 710 v 2068 2069 l 43,13 c 101,30 190,107 240,209 30,61 32,73 32,166 0,87 -3,107 -27,157 -51,109 -151,193 -264,223 -69,18 -110,18 -184,0 z m 148,-135 c 140,-33 225,-188 178,-325 -22,-67 -55,-106 -117,-140 -67,-36 -151,-40 -219,-9 -213,98 -193,399 32,469 53,17 71,17 126,5 z M 12690,6214 c 80,-34 150,-138 150,-224 0,-76 -18,-118 -73,-175 -84,-86 -193,-106 -293,-54 -60,32 -92,68 -114,126 -81,217 118,415 330,327 z"
       id="path1538" />
    <path
       d="m 8628,12927 c -104,-39 -191,-118 -236,-215 -24,-50 -27,-70 -27,-157 0,-89 3,-107 28,-160 45,-97 147,-187 245,-216 l 42,-12 v -1009 c 0,-799 3,-1008 13,-1009 6,0 -18,-10 -54,-22 -115,-39 -198,-111 -247,-216 -36,-77 -42,-204 -14,-284 98,-276 444,-356 646,-149 198,201 126,541 -136,636 l -73,27 3,1006 c 1,729 -1,1009 -9,1014 -6,3 6,10 28,14 97,18 212,109 260,206 96,194 18,424 -179,525 -45,24 -67,28 -153,31 -67,2 -112,-1 -137,-10 z m 228,-146 c 88,-39 138,-123 138,-231 0,-265 -369,-341 -474,-98 -44,102 -10,241 72,300 82,58 174,68 264,29 z m -22,-2793 c 60,-18 131,-92 150,-159 20,-65 20,-92 1,-155 -19,-66 -90,-137 -158,-160 -60,-20 -138,-14 -193,14 -148,76 -180,282 -62,400 64,66 165,89 262,60 z"
       id="path1540" />
    <path
       d="m 11169,12917 c -102,-43 -173,-110 -218,-206 -23,-49 -26,-69 -26,-156 0,-89 3,-107 28,-160 45,-97 147,-187 244,-216 l 43,-12 2,-1014 3,-1013 -50,-15 c -101,-29 -194,-111 -243,-215 -23,-48 -26,-68 -27,-160 0,-95 3,-110 28,-163 40,-80 112,-151 194,-190 62,-29 77,-32 163,-32 88,0 101,3 162,33 86,42 153,109 192,192 28,58 31,75 31,160 0,86 -3,101 -32,163 -55,116 -142,185 -278,222 -7,2 -9,347 -7,1019 2,847 4,1016 16,1016 7,0 45,16 84,35 107,54 179,140 208,250 47,173 -36,359 -198,445 -58,31 -72,35 -163,37 -87,3 -107,1 -156,-20 z m 247,-136 c 89,-39 138,-120 138,-226 0,-78 -15,-118 -68,-173 -49,-53 -101,-75 -176,-76 -143,-1 -250,105 -250,248 0,30 5,67 11,83 52,141 205,205 345,144 z m -22,-2793 c 62,-19 130,-91 150,-157 20,-68 20,-94 1,-159 -32,-106 -147,-181 -260,-169 -167,17 -265,176 -209,340 18,54 93,127 146,144 46,15 123,15 172,1 z"
       id="path1542" />
    <path
       d="m 960,12811 c -64,-21 -126,-58 -170,-101 -159,-155 -156,-407 7,-561 49,-46 144,-99 178,-99 13,0 15,-215 15,-1737 V 8575 l 622,3 c 343,1 633,0 646,-3 l 22,-5 -2,-1258 -3,-1257 -642,-3 -643,-2 V 4127 2203 l -42,-12 c -101,-30 -190,-111 -242,-220 -27,-58 -31,-77 -31,-151 0,-67 5,-99 25,-149 32,-82 111,-166 195,-207 56,-27 68,-29 175,-29 105,1 120,3 166,27 239,125 292,441 105,628 -49,49 -157,110 -194,110 -16,0 -17,93 -15,1858 l 3,1857 638,3 637,2 v 1395 1395 l -622,1 c -343,1 -630,2 -638,3 -13,1 -15,193 -15,1665 v 1663 l 55,22 c 86,33 114,51 162,105 146,162 136,398 -23,546 -84,77 -133,97 -249,101 -52,2 -106,0 -120,-5 z m 198,-146 c 46,-20 108,-78 132,-125 63,-123 6,-275 -125,-336 -130,-61 -294,10 -338,146 -21,64 -21,92 -2,156 31,104 126,174 238,174 32,0 74,-7 95,-15 z M 1139,2054 c 175,-52 232,-280 104,-416 -61,-64 -191,-91 -274,-56 -219,94 -204,402 23,473 57,18 84,18 147,-1 z"
       id="path1544" />
    <path
       d="m 18865,12803 c -105,-38 -181,-110 -233,-220 -23,-50 -27,-71 -27,-153 0,-88 3,-101 33,-162 18,-36 52,-86 77,-111 44,-45 152,-107 187,-107 17,0 18,-55 18,-1670 V 8710 h -640 -640 V 7315 5920 h 640 640 V 4060 c 0,-1645 -2,-1860 -15,-1860 -38,0 -145,-63 -194,-115 -185,-196 -126,-509 118,-624 50,-23 68,-26 166,-26 102,0 114,2 169,30 73,37 143,106 179,177 49,98 51,239 4,342 -44,95 -159,190 -254,211 l -33,7 v 1924 1924 l -637,2 -638,3 -3,1257 -2,1258 22,5 c 13,3 301,4 641,3 l 617,-3 v 1733 c 0,1377 3,1734 13,1737 109,38 132,51 186,103 34,34 70,82 87,117 26,55 29,69 29,165 0,93 -3,112 -27,162 -35,76 -104,148 -181,189 -56,30 -72,34 -157,36 -72,3 -107,-1 -145,-14 z m 223,-138 c 49,-21 110,-80 133,-130 21,-46 25,-129 7,-186 -15,-51 -70,-114 -120,-140 -96,-49 -217,-30 -293,46 -158,157 -46,425 178,425 32,0 74,-7 95,-15 z m -20,-10610 c 212,-63 234,-371 34,-463 -204,-93 -414,89 -347,302 22,69 84,134 152,158 60,22 96,22 161,3 z"
       id="path1546" />
    <path
       d="m 2245,12343 c -98,-25 -201,-112 -250,-209 -25,-50 -30,-73 -33,-154 -3,-79 0,-105 18,-153 41,-109 134,-199 243,-236 l 52,-18 3,-1091 2,-1092 h 640 640 l -2,-996 -3,-997 -42,-12 c -163,-48 -273,-200 -273,-377 0,-159 76,-281 220,-351 60,-30 73,-32 165,-32 93,0 105,2 167,33 237,117 297,416 121,612 -51,57 -98,88 -168,111 -41,13 -50,21 -52,40 0,13 -1,493 -2,1066 l -1,1043 -637,2 -638,3 v 1019 1018 l 55,21 c 329,121 358,560 47,719 -55,28 -72,32 -157,34 -52,2 -104,0 -115,-3 z m 216,-161 c 95,-49 155,-175 129,-272 -35,-129 -148,-211 -272,-197 -173,21 -269,198 -195,360 57,125 212,175 338,109 z M 3733,7235 c 197,-95 181,-392 -25,-461 -59,-19 -148,-15 -195,10 -151,78 -181,289 -58,409 20,20 56,43 79,51 53,20 149,16 199,-9 z"
       id="path1548" />
    <path
       d="m 17595,12337 c -124,-41 -212,-129 -255,-258 -45,-132 -6,-290 96,-393 45,-44 154,-106 188,-106 15,0 16,-90 16,-1025 V 9530 h -640 -640 V 8462 7394 l -46,-12 c -102,-27 -189,-106 -242,-219 -23,-50 -27,-71 -27,-153 0,-82 4,-103 27,-153 54,-114 131,-184 247,-222 77,-25 197,-18 274,18 72,33 153,113 192,192 28,55 30,68 30,165 0,96 -3,110 -29,162 -54,106 -126,172 -229,208 l -52,18 -3,996 -2,996 h 640 640 v 1090 c 0,1030 1,1091 18,1096 125,42 217,119 266,224 28,59 31,74 31,165 0,92 -3,105 -32,166 -38,76 -105,144 -184,185 -46,24 -68,28 -149,31 -59,2 -110,-2 -135,-10 z m 222,-148 c 151,-73 189,-266 78,-397 -87,-104 -259,-106 -360,-5 -118,118 -92,304 55,395 56,34 164,38 227,7 z M 16511,7248 c 55,-16 118,-73 145,-132 100,-215 -126,-435 -337,-328 -95,48 -147,143 -136,250 16,156 174,257 328,210 z"
       id="path1550" />
    <path
       d="m 6090,9025 c -152,-43 -269,-173 -289,-322 -9,-64 3,-162 26,-211 46,-100 146,-191 239,-218 l 54,-15 v -725 -724 h -640 -640 v -695 c 0,-655 1,-695 18,-695 9,0 296,-1 637,-3 l 620,-2 v -679 -679 l -52,-18 c -102,-34 -189,-114 -235,-215 -19,-41 -23,-66 -23,-154 0,-97 2,-110 31,-170 38,-80 92,-135 175,-180 62,-34 67,-35 174,-35 97,0 117,3 165,26 66,31 152,115 185,179 31,61 48,160 40,224 -23,167 -137,291 -312,342 -10,3 -13,161 -13,749 v 745 l -607,1 c -335,0 -621,2 -638,2 l -30,2 -3,558 -2,557 h 645 645 v 795 795 l 28,6 c 54,13 126,57 174,106 123,126 149,305 66,461 -82,154 -274,238 -438,192 z m 206,-153 c 158,-80 187,-297 57,-412 -146,-128 -360,-59 -409,131 -31,121 45,255 166,294 57,19 135,13 186,-13 z m -35,-4964 c 107,-36 173,-128 173,-238 -1,-148 -101,-250 -244,-250 -175,0 -291,155 -242,326 36,123 191,204 313,162 z"
       id="path1552" />
    <path
       d="m 13772,9024 c -73,-19 -131,-55 -187,-115 -146,-156 -137,-403 20,-548 44,-41 119,-83 168,-95 l 27,-6 v -795 -795 h 640 640 v -560 -560 h -640 -640 v -749 -748 l -29,-6 c -98,-20 -204,-108 -252,-210 -90,-194 -11,-426 178,-519 120,-59 276,-50 387,23 205,136 234,435 59,605 -47,46 -151,104 -186,104 -16,0 -17,37 -15,683 l 3,682 638,3 637,2 v 695 695 h -640 -640 v 725 725 l 28,6 c 48,12 123,54 167,95 162,149 166,407 9,561 -101,99 -240,138 -372,102 z m 216,-159 c 116,-63 164,-202 108,-320 -61,-132 -212,-188 -337,-124 -52,26 -114,101 -129,154 -60,214 164,396 358,290 z m -37,-4960 c 98,-35 158,-113 166,-218 7,-79 -21,-151 -79,-203 -53,-48 -100,-66 -169,-66 -147,0 -260,125 -246,272 9,100 64,175 153,210 60,23 118,25 175,5 z"
       id="path1554" />
    <path
       d="m 2233,5346 c -101,-33 -193,-113 -243,-212 -22,-43 -25,-61 -25,-159 0,-98 3,-116 27,-167 47,-100 142,-183 243,-213 l 40,-12 2,-1009 c 2,-555 3,-1019 3,-1031 v -23 h 705 c 665,0 705,1 705,18 0,9 1,240 3,512 l 2,495 h 570 570 l 3,-1367 2,-1368 h 65 65 v 1440 1440 h -705 -705 l -2,-517 -3,-518 h -570 -570 v 964 964 l 42,12 c 106,31 215,132 254,233 30,80 30,205 -1,285 -30,80 -113,167 -197,209 -56,27 -78,32 -152,35 -54,2 -102,-2 -128,-11 z m 200,-140 c 96,-35 159,-126 160,-230 1,-156 -120,-267 -275,-253 -173,15 -275,210 -194,366 23,42 90,101 132,116 49,18 128,18 177,1 z"
       id="path1556" />
    <path
       d="m 17581,5340 c -100,-37 -184,-118 -234,-227 -17,-38 -22,-67 -22,-143 0,-88 3,-101 33,-162 18,-37 54,-88 80,-114 45,-46 149,-104 185,-104 16,0 17,-53 17,-970 v -970 l -567,3 -568,2 -3,518 -2,517 h -710 -710 V 2250 810 h 70 70 v 1370 1370 h 570 570 v -515 -515 h 710 710 l 2,1031 3,1031 61,22 c 75,27 121,62 173,130 155,200 79,493 -155,598 -70,31 -208,35 -283,8 z m 242,-144 c 81,-39 128,-112 135,-209 9,-114 -63,-223 -166,-253 -135,-39 -266,21 -312,142 -25,69 -25,119 0,187 38,101 129,160 240,154 36,-2 82,-11 103,-21 z"
       id="path1558" />
    <path
       d="m 8220,4679 c -76,-30 -125,-68 -176,-136 -55,-73 -77,-139 -77,-228 0,-160 76,-280 226,-357 57,-30 70,-32 157,-32 76,0 107,4 153,23 103,41 206,157 232,264 l 7,27 h 1217 1217 l 12,-45 c 26,-98 103,-185 210,-237 61,-30 75,-33 162,-33 88,0 101,3 163,33 85,42 151,109 191,192 28,59 31,74 31,161 0,90 -2,99 -38,171 -43,87 -98,142 -186,185 -50,25 -67,28 -161,28 -92,0 -112,-3 -160,-26 -100,-47 -174,-130 -209,-232 l -18,-52 -1215,-3 -1215,-2 -12,42 c -30,103 -103,188 -204,240 -55,28 -73,32 -157,35 -78,3 -105,-1 -150,-18 z m 235,-138 c 98,-44 150,-125 149,-231 -1,-196 -201,-308 -377,-213 -60,33 -101,92 -117,168 -25,121 51,250 168,285 48,15 135,10 177,-9 z m 3186,8 c 125,-42 196,-186 155,-315 -24,-76 -87,-138 -161,-160 -202,-58 -373,117 -313,320 15,51 99,137 148,153 47,15 129,16 171,2 z"
       id="path1560" />
    <path
       d="m 9818,4097 c -113,-48 -187,-124 -228,-234 -25,-67 -27,-182 -4,-250 38,-113 141,-215 250,-250 l 54,-17 V 2133 c 0,-1147 -1,-1214 -17,-1219 -131,-42 -214,-109 -265,-212 -31,-63 -33,-73 -33,-172 0,-95 3,-111 29,-164 36,-75 113,-152 191,-191 55,-27 69,-30 165,-30 98,0 109,2 166,32 119,62 194,165 217,297 20,118 -21,245 -109,332 -44,44 -152,104 -186,104 -17,0 -18,65 -18,1220 0,969 3,1220 13,1220 24,0 122,52 165,87 219,179 171,530 -88,651 -44,21 -73,27 -150,29 -82,3 -103,0 -152,-20 z m 225,-129 c 22,-5 58,-27 83,-50 147,-136 85,-377 -111,-429 -116,-32 -256,48 -296,168 -6,19 -9,63 -7,98 7,112 87,203 198,224 45,8 63,7 133,-11 z m 28,-3216 c 182,-95 182,-352 0,-444 -95,-49 -209,-33 -285,40 -54,52 -76,104 -76,182 0,78 22,130 76,182 76,73 191,89 285,40 z"
       id="path1562" />
    <path
       d="m 4783,771 c -163,-61 -265,-204 -264,-372 1,-161 83,-289 229,-357 50,-24 70,-27 157,-27 88,0 107,3 158,27 73,35 156,113 191,181 97,193 18,427 -178,526 -85,44 -210,53 -293,22 z m 222,-145 c 100,-48 150,-125 149,-231 -2,-149 -115,-253 -263,-243 -74,6 -110,21 -160,68 -46,45 -73,110 -73,180 0,183 185,303 347,226 z"
       id="path1564" />
    <path
       d="m 15025,769 c -198,-68 -311,-293 -245,-489 36,-106 108,-188 210,-238 49,-24 66,-27 160,-27 93,0 111,3 162,27 173,81 266,286 212,468 -28,94 -79,163 -159,215 -102,66 -228,82 -340,44 z m 242,-147 c 146,-75 177,-277 60,-401 -112,-117 -323,-85 -398,62 -67,129 -1,302 132,350 58,22 151,16 206,-11 z"
       id="path1566" />
  </g>
</svg>
