<?xml version="1.0" encoding="UTF-8" standalone="no"?>
<svg
   xmlns:dc="http://purl.org/dc/elements/1.1/"
   xmlns:cc="http://creativecommons.org/ns#"
   xmlns:rdf="http://www.w3.org/1999/02/22-rdf-syntax-ns#"
   xmlns:svg="http://www.w3.org/2000/svg"
   xmlns="http://www.w3.org/2000/svg"
   xmlns:sodipodi="http://sodipodi.sourceforge.net/DTD/sodipodi-0.dtd"
   xmlns:inkscape="http://www.inkscape.org/namespaces/inkscape"
   version="1.0"
   width="240"
   height="100"
   viewBox="0 0 180 75.000003"
   preserveAspectRatio="xMidYMid meet"
   id="svg62"
   sodipodi:docname="temp_banner.svg"
   inkscape:export-filename="/home/atulya/Desktop/temp_banner.png"
   inkscape:export-xdpi="96"
   inkscape:export-ydpi="96"
   inkscape:version="1.0 (b51213c273, 2020-08-10)">
  <metadata
     id="metadata68">
    <rdf:RDF>
      <cc:Work
         rdf:about="">
        <dc:format>image/svg+xml</dc:format>
        <dc:type
           rdf:resource="http://purl.org/dc/dcmitype/StillImage" />
        <dc:title></dc:title>
      </cc:Work>
    </rdf:RDF>
  </metadata>
  <defs
     id="defs66" />
  <sodipodi:namedview
     pagecolor="#ffffff"
     bordercolor="#666666"
     borderopacity="1"
     objecttolerance="10"
     gridtolerance="10"
     guidetolerance="10"
     inkscape:pageopacity="0"
     inkscape:pageshadow="2"
     inkscape:window-width="1366"
     inkscape:window-height="717"
     id="namedview64"
     showgrid="false"
     inkscape:zoom="2.312342"
     inkscape:cx="249.62029"
     inkscape:cy="19.315164"
     inkscape:window-x="0"
     inkscape:window-y="27"
     inkscape:window-maximized="1"
     inkscape:current-layer="svg62"
     inkscape:document-rotation="0"
     width="1e-05pt"
     units="px" />
  <g
     transform="matrix(0.00382464,0,0,-0.00375277,-1.8089972,74.999871)"
     fill="#000000"
     stroke="none"
     id="g60">
    <path
       d="m 33508,19980 c -76,-10 -196,-68 -257,-125 -97,-91 -157,-219 -167,-354 -22,-291 219,-550 511,-551 153,0 279,54 384,165 196,210 183,531 -31,736 -108,103 -271,151 -440,129 z m 212,-200 c 125,-36 222,-199 207,-347 -11,-109 -86,-216 -185,-265 -39,-19 -63,-23 -142,-23 -112,0 -163,20 -234,91 -71,71 -91,122 -91,234 0,83 4,101 27,145 42,80 132,155 213,176 35,9 157,3 205,-11 z"
       id="path2" />
    <path
       d="m 1318,15903 c -2,-2194 -7,-3996 -12,-4005 -4,-10 -14,-18 -21,-18 -7,0 -50,-19 -95,-41 -183,-92 -290,-265 -290,-470 0,-193 114,-371 294,-459 193,-95 415,-62 573,84 108,100 156,200 169,354 19,224 -136,447 -362,522 l -64,22 v 3999 3999 h -95 -94 z m 214,-4215 c 84,-25 181,-132 208,-228 16,-59 12,-145 -11,-207 -27,-71 -93,-139 -174,-179 -116,-57 -278,-30 -369,61 -137,137 -135,353 4,479 96,87 213,112 342,74 z"
       id="path4" />
    <path
       d="m 3040,18611 v -1280 l -57,-16 c -235,-68 -329,-143 -423,-340 -381,-799 -598,-3459 -559,-6833 29,-2546 184,-4776 434,-6251 38,-224 103,-553 121,-613 5,-17 -25,-18 -524,-18 h -530 l -11,46 c -33,129 -150,264 -287,330 -69,33 -88,38 -173,42 -173,8 -290,-35 -402,-147 -210,-210 -208,-535 6,-740 184,-177 461,-196 664,-46 87,64 160,168 191,272 l 13,43 h 553 553 l 31,-102 c 54,-177 81,-249 146,-384 102,-213 177,-278 404,-349 307,-96 912,-190 1690,-264 l 185,-17 -54,-28 c -106,-55 -192,-160 -252,-308 l -23,-58 H 3119 1502 l -12,47 c -31,124 -150,272 -262,326 -203,97 -421,71 -578,-70 -175,-157 -225,-406 -124,-619 55,-116 203,-242 322,-274 61,-16 217,-13 286,5 161,42 292,168 347,332 l 20,61 82,7 c 45,3 774,5 1621,3 l 1538,-3 22,-61 c 52,-144 163,-264 298,-325 48,-21 67,-23 203,-24 h 150 l 68,33 c 99,49 194,147 249,258 l 43,87 v 127 127 l -44,88 c -33,68 -61,106 -115,160 l -71,70 175,-12 c 96,-7 299,-21 450,-31 l 275,-17 V 1060 275 l -847,-3 -848,-2 V 135 0 h 85 85 v 40 40 h 855 855 v 878 877 l 233,-12 c 249,-12 842,-38 1125,-49 l 172,-7 V 884 0 h 95 95 v 880 c 0,844 1,880 18,880 10,0 248,-7 528,-15 782,-22 1359,-34 2047,-42 l 627,-6 V 848 0 h 95 95 v 843 844 l 1503,6 c 826,4 1550,10 1610,13 l 107,7 V 857 0 h 95 95 v 854 854 l 298,6 c 605,14 1465,36 1742,46 501,18 1033,39 1113,45 l 77,6 V 906 0 h 95 95 v 910 910 h 33 c 62,0 736,41 1083,65 193,14 363,25 377,25 h 27 V 995 80 h 850 850 V 40 0 h 95 95 v 135 135 h -855 -855 v 830 c 0,457 3,830 8,830 4,0 126,11 272,25 819,78 1418,175 1708,277 187,65 256,122 336,278 71,137 128,296 186,518 l 11,42 1210,-2 1210,-3 28,-71 c 120,-308 455,-435 744,-282 76,41 173,144 217,233 l 35,70 v 150 c 0,171 -7,193 -89,302 -57,75 -130,136 -211,174 -58,28 -66,29 -206,29 h -146 l -74,-37 c -105,-52 -196,-145 -249,-254 -22,-45 -40,-88 -40,-95 0,-6 -10,-15 -22,-18 -13,-4 -548,-10 -1190,-13 -1077,-5 -1168,-5 -1168,10 0,9 13,83 29,164 117,593 224,1528 291,2548 18,285 50,836 50,878 0,14 14,7 63,-30 34,-27 91,-61 127,-78 60,-27 74,-29 180,-29 123,0 204,17 270,57 109,65 200,177 240,297 29,87 25,245 -9,333 -53,136 -163,251 -290,303 -36,15 -73,34 -81,41 -13,12 -15,703 -18,6078 l -2,6065 h -95 -95 v -5447 c 0,-5108 -3,-6502 -16,-6649 l -5,-60 -42,-11 c -23,-7 -78,-35 -121,-63 l -79,-52 6,144 c 20,433 29,1344 24,2338 -5,1014 -11,1289 -37,2005 -100,2699 -357,4576 -700,5118 -90,144 -184,195 -507,277 l -43,11 v 1194 1195 h -95 -95 v -1175 c 0,-646 -2,-1175 -5,-1175 -2,0 -73,11 -157,24 -287,46 -746,99 -1208,138 l -145,13 -3,1088 -2,1087 h -90 -90 v -1080 c 0,-1063 0,-1080 -19,-1080 -11,0 -154,9 -318,20 -312,21 -745,45 -1020,56 l -163,7 v 1038 1039 h -95 -95 v -1036 -1036 l -87,6 c -111,8 -1275,46 -1395,46 h -38 v 1010 1010 h -95 -95 v -1011 -1011 l -37,6 c -21,3 -243,8 -493,11 -250,3 -575,8 -722,11 l -268,7 v 993 994 h -90 -90 v -994 -994 h -1432 c -788,0 -1515,-4 -1615,-7 l -183,-8 v 1002 1001 h -95 -95 v -1000 -1000 h -62 c -132,0 -1092,-19 -1270,-25 l -188,-7 v 1016 1016 h -90 -90 v -1014 -1015 l -52,-5 c -29,-3 -174,-8 -323,-11 -148,-3 -448,-13 -665,-20 -217,-8 -414,-15 -437,-15 h -43 v 1040 1040 h -95 -95 v -1045 -1045 h -27 c -67,0 -1097,-49 -1390,-66 l -113,-7 v 1082 1081 h -90 -90 v -1085 -1084 l -32,-5 c -18,-3 -152,-12 -298,-21 -263,-16 -798,-55 -1062,-79 l -138,-12 v 1143 1143 h -85 -85 v -1150 -1149 l -32,-5 c -18,-3 -125,-15 -238,-26 -390,-40 -844,-103 -1118,-155 -70,-14 -133,-25 -139,-25 -10,0 -13,258 -13,1255 v 1255 h -85 -85 z m 3600,-4865 c 95,-26 237,-88 290,-126 15,-11 30,-20 33,-20 2,0 12,20 22,45 34,90 91,135 170,135 60,0 106,-22 130,-63 19,-30 20,-53 20,-417 0,-425 0,-421 -63,-454 -38,-19 -127,-27 -196,-17 -77,11 -119,52 -131,127 -28,192 -122,340 -264,418 -108,58 -300,83 -433,55 -133,-28 -264,-121 -323,-231 -34,-62 -46,-180 -25,-244 29,-88 121,-189 215,-237 57,-28 191,-65 445,-121 140,-32 284,-66 320,-78 144,-46 269,-126 371,-236 84,-91 124,-160 167,-285 131,-381 -55,-796 -433,-968 -139,-63 -201,-74 -410,-74 -155,1 -210,5 -300,23 -129,25 -254,66 -342,111 -34,17 -64,31 -66,31 -3,0 -22,-30 -43,-67 -47,-80 -80,-103 -152,-103 -64,0 -106,20 -132,63 -19,30 -20,53 -20,421 v 388 l 38,38 c 31,31 46,38 96,44 32,4 84,5 116,1 48,-6 65,-13 94,-41 30,-30 35,-41 41,-101 14,-143 52,-229 134,-306 96,-90 235,-140 442,-159 231,-21 343,9 466,125 82,78 118,144 134,247 21,140 -20,271 -118,369 -92,92 -142,110 -528,200 -187,43 -377,93 -421,110 -305,118 -494,376 -494,676 0,277 164,527 435,662 143,72 258,94 465,89 129,-3 171,-8 250,-30 z m 7297,0 c 101,-28 199,-69 276,-117 27,-16 50,-29 51,-27 1,2 12,26 25,55 13,29 39,67 58,85 32,31 38,33 109,33 74,0 76,-1 109,-36 l 33,-36 7,-198 c 8,-218 -2,-576 -17,-609 -24,-55 -120,-83 -234,-70 -88,11 -120,45 -144,154 -26,122 -56,193 -108,263 -57,75 -147,138 -240,168 -93,30 -262,37 -356,15 -139,-33 -258,-122 -316,-239 -25,-50 -30,-72 -30,-131 0,-95 12,-133 64,-204 91,-123 186,-163 606,-257 140,-31 284,-66 320,-77 360,-115 595,-440 577,-798 -18,-357 -250,-638 -612,-742 -71,-20 -101,-23 -270,-23 -155,1 -210,5 -300,23 -128,25 -254,66 -345,111 -56,28 -66,30 -75,17 -5,-8 -25,-39 -43,-69 -42,-67 -75,-87 -142,-87 -58,0 -99,18 -129,56 -20,26 -21,36 -21,422 v 394 l 38,38 c 32,32 45,38 99,45 96,11 159,-1 201,-39 32,-30 36,-40 48,-123 21,-142 46,-197 123,-273 106,-105 229,-152 452,-172 230,-21 342,9 465,124 109,103 155,233 133,385 -22,155 -129,284 -286,343 -26,10 -181,48 -343,85 -162,37 -331,78 -375,92 -210,65 -394,212 -480,383 -53,105 -67,159 -72,285 -5,103 -2,132 16,198 81,295 327,510 654,573 117,22 359,12 474,-20 z m 2713,9 c 94,-21 174,-53 241,-96 117,-74 185,-250 225,-579 31,-251 34,-1139 5,-1390 -41,-355 -110,-543 -227,-617 -109,-70 -213,-98 -421,-113 -283,-20 -646,-6 -789,30 -277,71 -364,212 -420,682 -22,179 -31,933 -15,1189 33,527 114,747 306,835 145,66 299,84 715,79 240,-2 321,-7 380,-20 z m -6794,-69 44,-43 v -282 c 0,-306 -2,-317 -56,-360 -24,-19 -40,-21 -140,-21 -110,0 -115,1 -144,28 -41,36 -49,78 -50,245 v 137 h -515 -515 v -400 -400 h 270 270 v 65 c 0,79 16,122 60,159 33,27 36,28 141,24 98,-3 110,-5 134,-28 55,-51 55,-54 55,-395 0,-343 -1,-351 -56,-394 -23,-18 -40,-21 -139,-21 -100,0 -115,2 -140,22 -39,30 -55,77 -55,158 v 70 h -270 -270 v -455 -455 h 564 563 l 7,197 c 8,211 12,229 64,268 21,16 46,21 115,24 102,4 134,-6 177,-56 l 30,-34 v -322 c 0,-299 -2,-324 -19,-351 -10,-15 -32,-37 -47,-47 -28,-18 -67,-19 -1050,-19 H 7863 l -34,23 c -47,31 -59,61 -59,144 0,136 36,166 208,172 l 112,3 v 1024 1024 h -87 c -120,1 -161,12 -200,54 -31,34 -33,40 -33,112 0,48 6,88 16,109 32,68 -25,65 1053,65 h 974 z m 1072,28 c 42,-17 88,-57 107,-95 35,-67 618,-1722 715,-2029 28,-91 56,-174 60,-185 5,-11 9,427 9,981 l 1,1001 -103,5 c -167,7 -203,43 -195,188 5,82 6,85 43,117 l 38,33 h 380 379 l 38,-37 c 31,-32 38,-47 44,-94 11,-90 -13,-157 -67,-185 -21,-12 -66,-19 -134,-22 l -103,-5 v -1145 -1145 l -21,-34 c -35,-56 -60,-63 -223,-63 -80,0 -157,5 -173,11 -46,17 -102,79 -124,139 -126,333 -644,1812 -710,2024 -27,88 -51,161 -54,164 -3,3 -5,-445 -5,-995 v -1001 l 103,-4 c 117,-5 157,-20 183,-71 22,-41 22,-163 0,-205 -31,-60 -46,-62 -445,-62 -316,0 -365,2 -395,17 -48,22 -66,65 -66,153 0,131 36,162 198,168 l 102,4 v 1023 1022 l -102,5 c -146,7 -181,27 -197,114 -18,97 14,190 74,214 11,5 152,9 313,9 243,1 299,-2 330,-15 z m 7857,-10 c 256,-76 452,-229 550,-428 65,-132 79,-196 73,-341 -4,-86 -11,-138 -27,-183 -44,-127 -154,-279 -261,-357 l -49,-36 64,-85 c 76,-99 118,-177 135,-254 7,-31 16,-176 20,-330 8,-292 15,-337 57,-376 56,-52 80,-28 92,91 14,138 55,175 194,175 91,0 136,-17 170,-64 18,-26 22,-43 21,-106 -4,-251 -166,-445 -382,-458 -212,-12 -380,82 -466,261 -59,121 -68,181 -75,477 l -6,265 -29,53 c -34,60 -86,112 -145,142 -81,41 -145,50 -348,50 h -193 v -429 -429 l 98,-4 c 157,-7 197,-40 196,-168 -1,-90 -19,-130 -68,-154 -30,-14 -84,-16 -429,-16 -394,0 -394,0 -428,23 -47,31 -59,61 -59,145 0,131 38,164 198,170 l 102,4 v 1023 1022 l -102,5 c -169,8 -203,39 -196,184 3,71 6,86 28,109 14,15 34,31 45,36 11,4 274,7 585,6 538,-3 568,-4 635,-23 z M 12720,9028 c 24,-13 52,-35 63,-49 25,-34 41,-102 302,-1249 120,-525 227,-993 239,-1040 l 21,-85 98,-6 c 149,-10 179,-38 179,-169 0,-88 -12,-116 -59,-147 -24,-16 -64,-18 -398,-21 l -370,-3 -35,23 c -48,33 -62,67 -62,154 0,59 4,79 22,103 30,44 52,52 141,58 44,3 79,9 79,12 0,3 -14,70 -32,149 l -32,142 -335,-2 -334,-3 -28,-120 c -15,-66 -30,-132 -33,-146 -5,-26 -5,-26 75,-32 88,-6 119,-20 149,-70 26,-42 26,-137 1,-193 -34,-75 -39,-76 -454,-72 -405,3 -414,5 -443,73 -18,44 -18,146 0,190 23,54 54,67 166,73 l 99,5 35,146 c 19,80 125,544 236,1031 259,1140 267,1174 292,1206 40,51 89,64 238,64 121,0 140,-2 180,-22 z m -4855,-22 c 92,-27 235,-91 284,-126 l 28,-19 34,67 c 45,88 80,112 167,112 61,0 66,-2 103,-39 l 39,-39 v -396 -396 l -34,-38 -34,-37 -115,-3 -114,-4 -37,32 c -36,32 -41,43 -71,175 -47,203 -179,339 -380,390 -75,19 -252,20 -324,0 -134,-35 -251,-127 -305,-238 -24,-48 -29,-71 -29,-136 -1,-67 4,-87 28,-137 34,-69 110,-148 181,-186 64,-35 204,-73 516,-143 333,-74 446,-122 584,-249 198,-180 293,-447 251,-699 -32,-187 -108,-330 -241,-454 -120,-112 -263,-184 -436,-219 -68,-13 -114,-16 -230,-11 -237,10 -423,50 -594,130 -58,27 -91,37 -93,30 -13,-37 -86,-134 -112,-147 -65,-34 -162,-11 -205,47 -20,28 -21,40 -21,416 0,353 2,389 18,414 34,53 61,62 180,62 h 108 l 40,-42 c 33,-35 39,-49 39,-85 0,-24 7,-72 15,-107 53,-222 245,-348 563,-369 228,-15 326,7 440,97 117,93 167,207 160,364 -5,117 -41,202 -120,280 -93,92 -140,110 -504,193 -180,41 -361,86 -403,100 -260,87 -452,281 -517,524 -23,87 -23,244 -1,330 63,241 264,453 513,541 109,39 189,48 369,45 151,-2 180,-6 260,-30 z m 2029,-32 c 21,-14 44,-41 52,-60 21,-50 18,-152 -6,-191 -31,-51 -65,-63 -180,-63 h -100 v -405 -405 h 450 450 l -2,403 -3,402 -112,5 c -111,5 -113,5 -145,38 -32,32 -33,34 -33,120 0,99 13,129 68,162 30,19 53,20 415,20 364,0 385,-1 422,-20 55,-28 72,-59 78,-139 5,-82 -13,-130 -63,-161 -27,-17 -50,-20 -134,-20 h -101 V 7630 6600 h 93 c 103,0 146,-15 181,-63 17,-23 21,-43 21,-106 0,-93 -14,-125 -67,-152 -35,-18 -63,-19 -423,-19 -419,0 -436,2 -471,55 -11,17 -19,54 -22,105 -4,68 -2,83 17,113 32,52 73,67 185,67 h 96 v 455 455 h -450 -450 v -455 -455 h 90 c 100,0 141,-12 180,-54 21,-24 25,-39 28,-104 4,-93 -15,-138 -68,-164 -32,-16 -74,-18 -423,-18 -371,0 -390,1 -428,20 -50,26 -62,54 -62,157 -1,74 2,85 24,109 38,42 79,54 179,54 h 90 v 1030 1030 h -102 c -86,0 -109,3 -136,20 -41,25 -62,74 -61,142 0,70 18,116 52,142 34,25 131,31 557,34 l 275,2 z m 5191,2 c 302,-64 540,-258 641,-522 33,-84 43,-249 24,-363 -24,-144 -139,-326 -270,-426 l -62,-47 25,-27 c 77,-84 156,-218 177,-301 6,-25 15,-173 20,-330 9,-308 15,-345 63,-386 56,-47 74,-28 86,89 14,143 52,177 197,177 78,0 96,-3 125,-23 55,-36 71,-79 64,-165 -16,-193 -114,-348 -260,-413 -66,-29 -181,-36 -269,-15 -225,53 -359,226 -386,496 -5,52 -10,181 -10,285 0,188 0,191 -29,250 -35,75 -110,145 -189,177 -52,21 -76,23 -279,26 l -223,3 v -430 -431 h 93 c 153,0 202,-40 202,-163 0,-90 -16,-128 -64,-155 -38,-21 -48,-22 -427,-22 -350,0 -392,2 -424,18 -49,24 -70,71 -70,157 0,128 45,165 204,165 h 96 l -2,1028 -3,1027 -110,5 c -159,7 -185,30 -185,161 0,78 17,125 52,149 32,21 248,28 728,24 301,-2 412,-7 465,-18 z m 3255,2 c 75,-51 75,-50 78,-338 4,-292 -1,-323 -53,-369 -35,-31 -37,-31 -145,-31 h -110 l -38,34 -37,34 -5,174 -5,173 -512,3 -513,2 v -405 -405 h 269 269 l 4,91 c 3,90 3,91 40,125 l 38,34 h 102 c 84,0 109,-4 135,-20 67,-40 68,-45 71,-345 2,-148 1,-299 -3,-335 -6,-57 -11,-69 -45,-102 l -38,-38 h -111 -111 l -38,34 c -37,34 -37,35 -40,125 l -4,91 h -269 -269 v -455 -455 h 565 565 v 193 c 0,174 2,195 20,225 34,56 73,72 176,72 78,0 96,-3 125,-23 67,-44 69,-57 69,-392 0,-335 -2,-348 -69,-392 l -34,-23 h -1016 c -989,0 -1017,1 -1048,20 -54,32 -68,64 -68,151 0,134 45,169 218,169 h 107 l -2,1028 -3,1027 -120,5 c -172,7 -200,31 -200,170 1,82 15,118 57,142 26,15 422,22 1404,26 l 561,2 z m 5403,-1444 c 57,-19 143,-99 172,-159 14,-29 21,-67 23,-138 4,-90 2,-103 -22,-152 -38,-76 -122,-150 -194,-171 -84,-25 -204,-15 -272,22 -101,55 -170,172 -170,288 0,136 88,262 223,319 51,21 165,17 240,-9 z M 1123,3467 c 74,-34 131,-88 164,-155 23,-48 27,-70 28,-142 0,-72 -4,-94 -26,-141 -36,-77 -90,-133 -157,-166 -80,-38 -192,-39 -273,-1 -79,36 -131,87 -165,160 -25,54 -29,75 -29,148 1,98 20,149 87,225 90,102 241,132 371,72 z m 24785,-12 c 65,-35 107,-81 141,-155 36,-79 36,-192 -1,-271 -35,-76 -85,-129 -155,-164 -50,-25 -70,-29 -143,-29 -73,-1 -93,3 -142,27 -205,100 -253,374 -94,533 73,73 135,95 251,91 77,-2 98,-7 143,-32 z M 1110,1771 c 78,-30 134,-81 172,-159 30,-59 33,-76 33,-152 0,-71 -4,-94 -26,-141 -33,-71 -87,-125 -158,-158 -48,-22 -70,-26 -146,-26 -78,0 -97,4 -141,27 -99,52 -186,187 -188,292 -1,76 37,167 97,232 100,110 218,138 357,85 z m 4238,11 c 163,-51 250,-175 240,-341 -7,-123 -65,-215 -170,-272 -59,-32 -69,-34 -153,-34 -116,0 -175,25 -245,102 -80,88 -109,215 -75,330 30,101 123,187 235,217 73,20 98,19 168,-2 z"
       id="path6" />
    <path
       d="m 15968,13430 c -161,-27 -241,-95 -284,-241 -39,-131 -47,-235 -51,-707 -7,-635 13,-857 88,-1010 65,-132 197,-181 486,-182 324,0 449,81 503,328 40,186 56,575 41,1033 -21,633 -72,742 -363,779 -94,11 -350,12 -420,0 z"
       id="path8" />
    <path
       d="m 18180,12965 v -425 h 193 c 223,0 299,14 418,76 79,42 163,125 200,200 21,42 24,63 24,149 0,88 -3,107 -27,158 -38,80 -120,160 -210,202 -111,53 -184,65 -405,65 h -193 z"
       id="path10" />
    <path
       d="m 12523,8459 c -34,-234 -154,-842 -232,-1171 -5,-20 -6,-39 -3,-42 9,-9 512,-7 512,2 0,5 -20,98 -44,208 -102,455 -192,931 -204,1079 l -7,80 z"
       id="path12" />
    <path
       d="m 14530,8231 v -431 h 178 c 215,1 309,16 409,65 102,50 175,120 219,210 35,70 36,77 33,162 -3,76 -9,98 -37,155 -58,117 -183,208 -333,242 -36,8 -154,17 -266,21 l -203,7 z"
       id="path14" />
    <path
       d="m 25220,15887 v -4004 l -60,-18 c -200,-61 -360,-275 -360,-484 0,-197 121,-386 304,-477 72,-35 87,-39 175,-42 53,-2 123,1 156,7 144,26 281,135 352,278 38,76 38,78 41,213 3,127 2,141 -21,198 -34,84 -101,176 -157,217 -47,35 -185,105 -206,105 -6,0 -15,12 -19,28 -4,15 -9,1817 -12,4005 l -5,3977 h -94 -94 z m 238,-4212 c 202,-92 256,-357 106,-524 -67,-74 -138,-106 -239,-106 -71,0 -89,4 -147,33 -120,59 -188,166 -188,297 0,196 165,347 360,329 30,-3 79,-16 108,-29 z"
       id="path16" />
    <path
       d="m 30090,16565 v -3325 h -855 -855 V 10580 7920 h -850 -850 V 5180 2440 h 850 850 V 1220 0 h 95 95 v 1178 c 0,647 -3,1234 -7,1304 l -6,128 -846,2 -846,3 v 98 c 0,53 1,1206 3,2562 l 2,2465 h 850 850 v 2655 2655 h 855 855 v 3420 3420 h -95 -95 z"
       id="path18" />
    <path
       d="m 43517,18083 c -4,-995 -7,-2488 -7,-3319 v -1511 l -157,-6 c -87,-4 -399,-7 -693,-7 -294,0 -605,-3 -691,-7 l -156,-6 -5,-2644 c -3,-1454 -8,-2647 -12,-2650 -3,-3 -386,-8 -851,-11 l -845,-5 V 5179 2440 h 588 c 323,0 705,-3 850,-7 l 262,-6 V 1213 0 h 90 90 v 1304 1303 l -837,7 c -461,4 -840,10 -842,12 -23,22 -27,5082 -5,5104 9,9 241,13 846,17 l 835,6 6,651 c 4,358 7,1550 7,2649 v 1997 h 850 850 v 3420 3420 h -83 -84 z"
       id="path20" />
    <path
       d="m 46719,19020 c -253,-39 -449,-263 -449,-515 0,-219 159,-434 367,-498 l 63,-19 -2,-1620 -3,-1620 -56,-18 c -301,-93 -456,-447 -317,-724 104,-207 325,-322 553,-286 105,16 187,60 276,149 109,109 141,180 147,321 7,169 -22,264 -116,376 -61,74 -149,135 -237,164 l -65,22 v 1618 1618 l 64,22 c 248,82 403,339 352,586 -8,43 -29,106 -45,139 -98,196 -321,316 -532,285 z m 216,-220 c 63,-31 124,-92 155,-155 34,-69 36,-207 3,-277 -92,-200 -360,-257 -523,-111 -73,65 -102,128 -108,228 -5,99 19,170 80,239 69,79 137,106 258,103 67,-2 96,-7 135,-27 z m -9,-4265 c 63,-31 138,-109 166,-173 29,-65 35,-164 13,-237 -13,-46 -28,-69 -73,-115 -135,-135 -294,-150 -437,-42 -124,94 -170,244 -116,383 69,180 279,266 447,184 z"
       id="path22" />
    <path
       d="m 27076,19004 c -164,-40 -312,-174 -367,-332 -29,-82 -36,-211 -15,-289 44,-173 164,-308 332,-370 l 74,-28 v -1576 c 0,-867 -3,-1597 -6,-1621 l -6,-46 -69,-27 c -294,-115 -421,-441 -281,-725 35,-71 141,-177 218,-218 295,-154 645,-6 740,313 25,83 22,219 -5,306 -50,158 -193,296 -355,344 l -41,12 -3,1620 -2,1619 49,13 c 101,26 236,130 301,231 61,96 92,252 71,365 -17,92 -74,198 -145,269 -131,131 -313,183 -490,140 z m 265,-206 c 69,-32 134,-94 162,-157 32,-70 31,-218 -2,-285 -33,-66 -91,-122 -160,-154 -46,-22 -71,-26 -141,-27 -106,0 -169,26 -234,95 -55,58 -81,109 -94,180 -30,162 69,316 238,371 52,17 172,5 231,-23 z m 4,-4269 c 181,-86 240,-318 124,-492 -109,-165 -361,-186 -505,-43 -170,171 -104,464 124,551 58,23 195,14 257,-16 z"
       id="path24" />
    <path
       d="m 40810,19004 c -131,-34 -261,-129 -324,-236 -91,-155 -96,-346 -14,-500 64,-119 189,-230 295,-258 26,-7 51,-16 54,-19 4,-3 10,-733 13,-1623 l 7,-1616 -38,-12 c -139,-45 -275,-156 -332,-271 -33,-68 -61,-178 -61,-244 0,-61 26,-158 61,-228 39,-77 154,-194 226,-231 262,-132 569,-25 702,245 38,77 43,95 48,180 7,112 -5,174 -48,264 -61,124 -192,239 -311,272 l -58,16 v 1623 1623 l 42,12 c 74,20 137,58 212,130 144,136 196,306 151,497 -22,93 -60,159 -134,233 -134,134 -320,188 -491,143 z m 279,-209 c 60,-33 109,-86 143,-154 19,-38 23,-62 23,-141 0,-84 -3,-102 -28,-152 -33,-67 -80,-111 -157,-147 -76,-36 -202,-37 -271,-3 -71,35 -122,84 -160,154 -31,58 -34,70 -34,148 0,66 5,96 22,132 31,67 96,133 167,169 57,29 66,30 151,27 76,-3 98,-8 144,-33 z m -36,-4255 c 76,-29 130,-79 169,-158 30,-60 33,-75 33,-157 0,-78 -4,-97 -28,-147 -30,-62 -83,-115 -149,-150 -36,-19 -58,-23 -138,-23 -82,0 -103,4 -150,26 -67,31 -131,94 -162,157 -32,66 -31,204 1,277 35,80 113,150 200,181 56,20 162,17 224,-6 z"
       id="path26" />
    <path
       d="m 33507,18924 c -4,-4 -7,-871 -7,-1926 v -1918 h 950 950 v 685 685 h 765 765 l -1,-1107 c -1,-610 -4,-1186 -8,-1282 l -6,-174 -50,-17 c -126,-43 -211,-106 -279,-208 -77,-116 -88,-157 -84,-302 3,-124 4,-128 42,-206 52,-104 152,-207 251,-255 l 70,-34 h 150 150 l 73,38 c 102,53 188,141 241,247 l 41,82 v 142 c 0,135 -1,144 -29,201 -68,144 -163,233 -311,291 l -70,27 v 1021 c 0,562 -3,1180 -7,1374 l -6,352 h -944 -943 v -685 -685 h -760 -760 v 1825 1825 h -67 c -38,0 -77,3 -88,6 -11,3 -24,2 -28,-2 z m 3629,-5241 c 70,-24 154,-110 183,-188 32,-85 27,-211 -11,-276 -32,-55 -101,-120 -160,-150 -65,-35 -192,-34 -268,2 -80,37 -125,81 -162,157 -29,59 -33,76 -33,147 0,60 6,91 22,127 37,80 128,166 201,188 49,15 176,11 228,-7 z"
       id="path28" />
    <path
       d="m 38586,18079 c -178,-44 -337,-213 -375,-397 -51,-248 114,-530 351,-600 l 58,-17 v -2477 -2478 h -845 -845 V 10256 8403 l 31,-7 c 16,-3 397,-9 845,-13 l 814,-6 -1,-2171 c 0,-1194 -4,-2193 -7,-2220 -6,-43 -11,-51 -33,-57 -92,-24 -240,-137 -298,-227 -131,-205 -95,-483 87,-653 98,-93 177,-128 300,-135 191,-11 290,24 413,145 112,112 159,215 159,356 0,143 -56,280 -156,379 -56,57 -104,86 -215,134 l -46,19 -6,399 c -4,220 -8,1209 -8,2199 -1,990 -4,1847 -8,1905 l -6,105 -655,6 c -360,3 -739,7 -842,8 l -188,1 v 1680 1680 h 850 850 v 2293 c 0,1262 3,2415 7,2564 l 6,271 56,22 c 128,51 216,121 283,224 53,82 78,169 78,270 0,219 -102,377 -312,483 -48,24 -65,27 -178,30 -69,1 -143,-2 -164,-8 z m 286,-203 c 71,-34 130,-99 159,-175 31,-83 24,-205 -16,-279 -87,-159 -278,-220 -441,-141 -55,26 -129,106 -159,172 -79,168 26,386 215,448 14,5 61,7 105,5 62,-2 93,-9 137,-30 z m -1,-14152 c 93,-51 169,-160 184,-265 9,-62 -17,-161 -58,-222 -56,-83 -176,-147 -275,-147 -36,0 -119,23 -157,43 -58,30 -114,88 -144,149 -74,147 -17,341 125,424 107,63 230,69 325,18 z"
       id="path30" />
    <path
       d="m 45210,15619 c -185,-24 -363,-201 -410,-407 -16,-67 -8,-190 15,-257 38,-110 127,-225 221,-285 26,-16 78,-41 115,-56 l 69,-26 v -983 c 0,-776 3,-985 13,-992 6,-4 387,-11 845,-14 459,-4 836,-10 839,-13 4,-3 8,-336 11,-739 l 5,-734 -399,-6 c -220,-4 -605,-7 -856,-7 h -458 V 10046 8992 l -52,-17 c -76,-25 -180,-88 -237,-145 -56,-56 -103,-146 -126,-241 -59,-253 75,-503 327,-605 54,-23 77,-26 178,-26 79,1 129,6 159,16 217,78 361,279 361,503 0,230 -146,422 -377,498 l -53,17 v 957 958 l 272,6 c 149,4 532,7 850,7 h 578 v 923 924 l -397,6 c -219,4 -602,7 -850,7 h -453 l 1,883 c 1,485 4,892 7,905 5,16 28,32 82,55 149,65 221,133 291,274 37,76 43,96 47,167 14,290 -172,526 -438,556 -94,11 -89,11 -180,-1 z m 241,-211 c 72,-33 119,-75 155,-140 27,-49 29,-61 29,-153 0,-90 -3,-105 -28,-153 -35,-67 -90,-122 -153,-153 -41,-20 -64,-24 -144,-24 -79,0 -103,4 -142,23 -94,46 -182,174 -195,281 -6,56 24,154 68,218 83,121 268,166 410,101 z m -19,-6624 c 69,-22 131,-82 175,-171 32,-64 37,-85 37,-142 0,-121 -81,-249 -189,-300 -73,-35 -182,-40 -257,-12 -179,68 -265,255 -199,432 65,172 245,252 433,193 z"
       id="path32" />
    <path
       d="m 31730,15606 c -145,-55 -234,-135 -301,-270 l -44,-89 -3,-129 -4,-129 37,-77 c 20,-42 54,-100 77,-129 46,-60 147,-133 233,-168 l 60,-24 6,-113 c 4,-62 7,-510 8,-995 l 1,-883 h 850 850 v -745 -745 h -850 -850 V 10050 8991 l -42,-12 c -168,-44 -326,-212 -369,-389 -27,-116 -10,-250 48,-365 38,-74 154,-185 233,-222 156,-74 298,-70 466,12 92,45 168,125 223,236 l 41,81 v 134 c 0,110 -4,142 -20,186 -59,150 -202,282 -357,328 l -43,13 v 964 963 h 855 855 v 923 924 l -397,6 c -219,4 -602,7 -850,7 h -453 v 894 c 0,492 3,901 6,910 3,9 12,16 19,16 7,0 53,20 102,45 143,71 238,188 278,342 60,231 -61,485 -282,591 -77,37 -80,37 -213,39 -94,2 -146,-2 -170,-11 z m 305,-197 c 55,-28 140,-115 161,-166 56,-133 21,-291 -84,-384 -61,-53 -135,-79 -226,-79 -61,0 -83,5 -134,31 -61,30 -129,96 -158,151 -21,40 -33,145 -24,211 16,117 124,233 240,258 62,14 176,3 225,-22 z m 2,-6640 c 122,-59 183,-159 183,-300 0,-171 -105,-292 -287,-329 -44,-9 -63,-8 -110,5 -163,47 -256,167 -257,330 -1,97 27,167 94,233 105,105 242,127 377,61 z"
       id="path34" />
    <path
       d="m 30030,12517 c -174,-59 -293,-183 -344,-357 -34,-112 -15,-274 45,-391 47,-93 178,-203 290,-244 l 64,-23 3,-3806 2,-3806 h 945 945 l 2,1088 3,1087 758,3 757,2 V 3396 722 l -61,-21 c -264,-89 -414,-380 -334,-649 l 16,-52 h 109 109 l -24,36 c -31,46 -40,89 -39,190 1,100 24,152 95,219 75,70 126,90 234,90 78,0 97,-4 140,-27 62,-32 129,-103 158,-166 18,-37 22,-66 22,-137 0,-82 -3,-95 -32,-147 l -31,-58 h 108 108 l 16,47 c 24,69 22,257 -3,327 -53,153 -224,310 -368,341 l -33,7 v 2759 2759 h -945 -945 V 5160 4080 h -760 -760 l 2,3711 3,3711 64,23 c 130,47 243,152 309,284 l 37,75 v 136 137 l -42,84 c -72,145 -191,244 -343,284 -83,22 -202,19 -280,-8 z m 274,-187 c 102,-39 181,-130 206,-238 34,-146 -50,-311 -189,-376 -37,-17 -65,-21 -141,-21 -85,0 -100,3 -140,26 -57,34 -126,103 -153,154 -32,58 -32,219 -1,286 31,67 87,124 156,159 77,38 176,42 262,10 z"
       id="path36" />
    <path
       d="m 43451,12518 c -322,-123 -457,-449 -306,-737 58,-110 129,-175 262,-238 l 113,-54 V 7690 3890 l 938,2 937,3 3,1083 2,1082 h 760 760 V 3393 725 l -63,-24 C 46582,595 46444,326 46525,52 l 16,-52 h 110 110 l -19,28 c -36,53 -47,95 -46,182 0,64 6,97 22,132 28,63 95,134 157,166 43,23 62,27 140,27 78,0 98,-4 146,-28 66,-32 132,-99 162,-165 17,-36 22,-66 22,-132 0,-76 -4,-93 -31,-148 l -31,-62 h 107 107 l 19,63 c 55,180 -4,386 -152,530 -55,53 -161,111 -223,122 l -41,7 v 2759 2759 h -940 -940 V 5160 4080 h -765 -765 v 3710 c 0,2972 2,3710 13,3710 6,0 57,22 113,49 81,40 112,62 160,113 101,109 144,215 144,358 0,151 -52,272 -160,374 -106,100 -226,146 -375,145 -56,0 -96,-6 -134,-21 z m 227,-172 c 108,-29 183,-93 231,-196 20,-43 25,-71 26,-130 0,-66 -5,-85 -33,-142 -40,-81 -102,-139 -181,-169 -45,-17 -71,-20 -136,-17 -133,7 -225,71 -281,193 -85,186 9,391 209,454 75,24 97,25 165,7 z"
       id="path38" />
    <path
       d="m 35155,11153 c -163,-59 -299,-198 -347,-356 -17,-57 -20,-87 -16,-171 4,-89 9,-112 37,-172 18,-38 51,-92 73,-122 46,-59 176,-151 248,-175 l 45,-15 6,-63 c 4,-35 7,-677 8,-1426 l 1,-1363 h 860 861 l -3,-1347 c -2,-742 -7,-1355 -11,-1364 -4,-8 -32,-23 -61,-32 -73,-23 -161,-83 -224,-151 -106,-116 -136,-203 -130,-375 3,-98 6,-112 40,-185 69,-143 207,-255 360,-291 254,-60 507,80 600,330 32,85 31,252 -1,345 -54,157 -164,267 -325,326 l -61,22 -6,1358 c -3,748 -7,1403 -8,1457 l -1,97 h -850 -850 v 1325 1325 l 28,11 c 15,6 63,29 107,50 106,50 190,135 243,246 l 37,78 v 141 140 l -39,79 c -52,106 -144,197 -251,250 -75,37 -82,38 -199,42 -98,3 -130,0 -171,-14 z m 291,-199 c 62,-29 138,-108 166,-172 30,-66 29,-177 -1,-254 -28,-73 -94,-141 -169,-176 -47,-22 -71,-26 -137,-26 -97,0 -152,22 -223,88 -83,78 -117,178 -100,294 33,214 269,339 464,246 z m 1711,-6605 c 52,-25 134,-105 159,-155 29,-60 31,-194 5,-265 -73,-195 -309,-268 -492,-153 -77,48 -137,153 -146,253 -11,121 62,252 175,314 89,48 205,51 299,6 z"
       id="path40" />
    <path
       d="m 28360,7507 c -141,-32 -285,-149 -354,-289 l -38,-75 v -143 -143 l 41,-82 c 66,-134 167,-221 320,-276 l 64,-23 -6,-1275 c -4,-702 -9,-1288 -13,-1303 -5,-21 -18,-30 -65,-48 -137,-49 -247,-151 -311,-287 -28,-60 -30,-68 -30,-204 v -142 l 41,-82 c 48,-98 145,-196 244,-247 l 62,-33 h 160 c 154,0 162,1 216,27 181,90 299,277 299,477 0,206 -113,379 -312,475 l -96,47 -6,162 c -4,89 -8,674 -9,1300 l -2,1137 50,16 c 164,53 290,173 347,329 30,83 36,222 13,301 -37,131 -139,265 -247,327 -90,52 -263,77 -368,54 z m 251,-204 c 167,-74 241,-289 158,-460 -28,-58 -108,-127 -177,-153 -46,-18 -72,-21 -137,-18 -100,6 -163,35 -228,108 -57,63 -82,132 -81,225 0,146 89,263 237,311 58,19 170,12 228,-13 z m -34,-3629 c 108,-37 185,-121 218,-238 41,-144 -39,-313 -180,-378 -41,-19 -66,-23 -145,-22 -111,0 -147,13 -215,75 -62,57 -93,113 -103,185 -24,180 71,334 238,385 44,13 138,10 187,-7 z"
       id="path42" />
    <path
       d="m 41800,7509 c -87,-14 -194,-72 -266,-144 -162,-163 -200,-415 -92,-617 55,-103 194,-213 316,-249 l 42,-12 V 5180 3873 l -42,-13 c -139,-41 -260,-143 -322,-272 -139,-290 -2,-616 302,-719 51,-18 90,-23 162,-23 190,0 333,80 441,246 55,85 61,119 57,292 -3,146 -4,153 -33,205 -66,120 -202,235 -317,269 l -58,17 v 1305 1305 l 51,12 c 120,29 260,147 323,274 l 36,72 v 157 c 0,154 -1,158 -30,216 -71,142 -205,252 -345,282 -78,17 -165,21 -225,11 z m 248,-214 c 195,-106 239,-372 87,-528 -20,-20 -60,-50 -88,-65 -47,-24 -62,-27 -152,-27 -92,0 -104,2 -154,30 -116,64 -175,172 -169,310 4,94 30,155 92,217 73,73 141,98 251,95 66,-3 90,-8 133,-32 z m -4,-3634 c 243,-118 241,-479 -2,-598 -50,-24 -69,-28 -147,-28 -78,0 -97,4 -147,28 -71,35 -131,101 -159,176 -29,78 -24,195 11,265 32,63 130,152 190,171 65,21 196,14 254,-14 z"
       id="path44" />
    <path
       d="m 34762,3075 c -191,-42 -370,-231 -393,-417 -5,-41 -5,-107 1,-160 13,-126 49,-200 144,-293 158,-156 350,-199 550,-124 133,49 271,196 313,332 l 16,54 510,6 c 281,4 1007,7 1614,7 h 1103 V 1240 0 h 98 97 l -3,1322 c -2,728 -5,1324 -7,1326 -1,1 -769,5 -1707,9 l -1705,6 -12,48 c -30,117 -158,267 -276,324 -113,54 -220,67 -343,40 z m 260,-208 c 70,-31 124,-85 157,-156 22,-48 26,-70 26,-146 0,-73 -5,-99 -23,-136 -37,-75 -87,-125 -159,-161 -58,-28 -77,-33 -143,-33 -126,1 -235,66 -295,177 -37,68 -46,181 -20,260 32,98 107,177 204,214 56,22 186,12 253,-19 z"
       id="path46" />
    <path
       d="m 36918,2155 c -332,-67 -518,-433 -372,-732 62,-129 173,-228 307,-274 l 67,-24 V 778 430 h -855 -855 V 215 0 h 95 95 v 120 120 h 848 849 l 6,112 c 4,62 7,262 7,443 v 330 l 62,20 c 127,40 243,142 308,270 l 35,69 v 161 160 l -35,65 c -44,83 -156,196 -235,237 -99,52 -220,70 -327,48 z m 238,-210 c 61,-27 117,-82 152,-150 33,-66 42,-189 18,-261 -26,-80 -82,-144 -158,-183 -175,-89 -364,-28 -450,147 -29,58 -33,76 -33,147 0,66 5,90 26,135 78,164 279,239 445,165 z"
       id="path48" />
    <path
       d="m 21395,1979 c -146,-22 -316,-152 -386,-295 -33,-67 -34,-73 -37,-208 -3,-121 -1,-145 18,-195 43,-115 157,-236 281,-299 52,-25 61,-26 209,-27 h 155 l 75,40 c 127,68 216,171 266,309 l 22,61 1572,3 c 865,1 1592,-1 1617,-5 43,-8 45,-10 68,-68 34,-81 107,-186 165,-235 99,-83 209,-114 376,-108 95,3 107,6 180,43 184,94 284,261 284,475 0,152 -44,257 -149,360 -166,163 -391,196 -603,89 -113,-57 -224,-194 -268,-332 l -12,-37 -1616,2 -1616,3 -21,61 c -85,245 -332,400 -580,363 z m 179,-201 c 80,-20 169,-99 210,-187 16,-36 21,-65 21,-136 0,-78 -4,-97 -27,-140 -32,-62 -103,-129 -166,-158 -72,-33 -198,-31 -272,4 -74,35 -120,76 -155,141 -25,45 -30,67 -33,144 -4,83 -2,97 23,153 42,92 132,166 232,190 40,10 102,6 167,-11 z m 4282,-5 c 108,-36 178,-109 209,-218 46,-155 -28,-321 -174,-392 -76,-38 -199,-40 -278,-4 -98,43 -175,151 -198,274 -9,46 23,154 64,218 33,52 103,106 165,125 58,18 154,17 212,-3 z"
       id="path50" />
    <path
       d="m 45235,1590 c -75,-12 -147,-43 -218,-94 -81,-57 -138,-125 -180,-212 -32,-68 -32,-71 -32,-214 V 925 l 44,-83 c 66,-125 183,-221 344,-281 l 27,-11 V 275 0 h 90 90 v 278 279 l 59,16 c 77,22 205,108 254,172 21,28 54,83 74,124 30,62 36,87 40,160 10,164 -33,287 -138,396 -116,121 -303,189 -454,165 z m 200,-207 c 33,-11 66,-32 100,-67 114,-114 141,-248 77,-378 -32,-66 -96,-134 -154,-164 -15,-8 -54,-20 -88,-28 -52,-12 -68,-12 -122,0 -114,27 -187,87 -237,194 -53,115 -25,272 63,364 97,99 218,125 361,79 z"
       id="path52" />
    <path
       d="m 31766,1579 c -129,-30 -274,-151 -341,-284 -38,-75 -40,-82 -44,-191 -3,-93 1,-125 18,-182 48,-158 189,-302 342,-348 l 59,-18 V 278 0 h 90 90 l 2,276 3,276 62,23 c 133,48 259,162 320,291 l 35,72 -4,144 c -3,139 -4,145 -36,209 -66,131 -189,239 -320,279 -69,22 -204,26 -276,9 z m 195,-183 c 103,-24 181,-84 231,-179 19,-35 23,-58 23,-142 0,-117 -19,-167 -91,-239 -69,-70 -123,-91 -229,-91 -78,0 -97,4 -147,28 -70,34 -140,110 -162,174 -21,60 -21,187 -1,244 33,94 90,149 202,195 67,27 96,29 174,10 z"
       id="path54" />
    <path
       d="m 13163,1435 c -186,-40 -353,-209 -392,-393 -57,-275 93,-528 367,-617 l 52,-17 V 204 0 h 90 90 v 203 203 l 80,33 c 322,131 442,487 260,771 -69,107 -182,186 -316,220 -89,23 -143,24 -231,5 z m 261,-214 c 118,-58 181,-160 180,-296 0,-98 -22,-152 -91,-226 -72,-77 -128,-100 -238,-100 -127,0 -239,70 -296,186 -30,61 -31,69 -27,152 5,100 32,167 93,228 68,67 143,96 242,91 57,-2 86,-10 137,-35 z"
       id="path56" />
    <path
       d="m 40015,30 c -125,-20 -101,-29 80,-28 163,0 176,1 138,13 -57,18 -158,25 -218,15 z"
       id="path58" />
  </g>
</svg>
