<?xml version="1.0" standalone="no"?>
<!DOCTYPE svg PUBLIC "-//W3C//DTD SVG 20010904//EN"
 "http://www.w3.org/TR/2001/REC-SVG-20010904/DTD/svg10.dtd">
<svg version="1.0" xmlns="http://www.w3.org/2000/svg"
 width="4801.000000pt" height="2000.000000pt" viewBox="0 0 4801.000000 2000.000000"
 preserveAspectRatio="xMidYMid meet">

<g transform="translate(0.000000,2000.000000) scale(0.100000,-0.100000)"
fill="#000000" stroke="none">
<path d="M33508 19980 c-76 -10 -196 -68 -257 -125 -97 -91 -157 -219 -167
-354 -22 -291 219 -550 511 -551 153 0 279 54 384 165 196 210 183 531 -31
736 -108 103 -271 151 -440 129z m212 -200 c125 -36 222 -199 207 -347 -11
-109 -86 -216 -185 -265 -39 -19 -63 -23 -142 -23 -112 0 -163 20 -234 91 -71
71 -91 122 -91 234 0 83 4 101 27 145 42 80 132 155 213 176 35 9 157 3 205
-11z"/>
<path d="M1318 15903 c-2 -2194 -7 -3996 -12 -4005 -4 -10 -14 -18 -21 -18 -7
0 -50 -19 -95 -41 -183 -92 -290 -265 -290 -470 0 -193 114 -371 294 -459 193
-95 415 -62 573 84 108 100 156 200 169 354 19 224 -136 447 -362 522 l-64 22
0 3999 0 3999 -95 0 -94 0 -3 -3987z m214 -4215 c84 -25 181 -132 208 -228 16
-59 12 -145 -11 -207 -27 -71 -93 -139 -174 -179 -116 -57 -278 -30 -369 61
-137 137 -135 353 4 479 96 87 213 112 342 74z"/>
<path d="M3040 16007 c0 -2136 -3 -4870 -7 -6075 l-6 -2192 -41 -11 c-240 -64
-412 -323 -377 -567 25 -172 135 -321 298 -404 l86 -43 132 0 132 0 84 42
c134 67 240 184 280 312 23 76 27 208 8 286 -40 166 -195 325 -366 376 l-43
12 0 2856 c0 1571 -3 4304 -7 6074 l-6 3217 -84 0 -83 0 0 -3883z m223 -8477
c57 -29 149 -122 173 -176 12 -27 18 -66 18 -124 0 -72 -4 -94 -26 -141 -55
-119 -148 -180 -290 -187 -77 -4 -92 -2 -145 22 -76 35 -135 94 -170 170 -55
120 -32 261 60 363 36 39 105 80 161 94 58 15 169 4 219 -21z"/>
<path d="M4750 16981 l0 -2910 -61 -17 c-163 -46 -320 -210 -354 -370 -42
-199 7 -376 140 -504 210 -201 548 -189 744 26 153 167 175 436 52 620 -74
111 -187 198 -298 230 l-53 15 0 2910 0 2909 -85 0 -85 0 0 -2909z m215 -3120
c59 -26 131 -95 163 -156 24 -44 27 -61 27 -150 0 -118 -18 -168 -85 -235 -66
-66 -137 -94 -240 -94 -73 -1 -93 3 -142 27 -157 77 -227 273 -154 433 43 95
122 164 216 191 58 17 158 9 215 -16z"/>
<path d="M6448 15003 l-3 -4888 -846 -3 -846 -2 -6 -1253 c-4 -688 -7 -2230
-7 -3424 l0 -2173 -1619 0 -1619 0 -11 46 c-33 129 -150 264 -287 330 -69 33
-88 38 -173 42 -173 8 -290 -35 -402 -147 -210 -210 -208 -535 6 -740 184
-177 461 -196 664 -46 87 64 160 168 191 272 l13 43 912 0 c501 0 1270 3 1708
7 l797 6 0 2572 c0 1414 3 2957 7 3428 l6 857 846 2 846 3 3 4978 2 4977 -90
0 -90 0 -2 -4887z m-5325 -11536 c74 -34 131 -88 164 -155 23 -48 27 -70 28
-142 0 -72 -4 -94 -26 -141 -36 -77 -90 -133 -157 -166 -80 -38 -192 -39 -273
-1 -79 36 -131 87 -165 160 -25 54 -29 75 -29 148 1 98 20 149 87 225 90 102
241 132 371 72z"/>
<path d="M8160 13580 l0 -6310 -852 -2 -853 -3 -5 -3495 -5 -3495 -847 -3
-848 -2 0 -135 0 -135 85 0 85 0 0 40 0 40 855 0 855 0 0 3493 0 3494 272 6
c149 4 536 7 860 7 l588 0 0 6405 0 6405 -95 0 -95 0 0 -6310z"/>
<path d="M9870 16285 l0 -3605 330 0 330 0 0 -3875 0 -3875 -237 2 -238 3 0
2525 c0 1389 4 2546 8 2573 5 28 13 47 21 47 29 0 155 72 208 120 182 162 229
397 124 625 -38 84 -141 182 -241 231 l-80 39 -145 0 -145 0 -70 -35 c-83 -42
-197 -150 -237 -226 -54 -102 -73 -244 -47 -366 23 -111 119 -247 222 -316 21
-14 73 -37 115 -52 l77 -28 0 -2568 0 -2569 -757 -3 -758 -2 0 408 0 408 57
19 c221 75 381 314 358 535 -19 179 -110 321 -266 413 -95 56 -153 70 -274 65
-97 -3 -107 -6 -191 -47 -112 -56 -205 -145 -255 -247 l-34 -69 0 -155 c0
-151 1 -157 29 -214 58 -117 205 -242 334 -283 l52 -17 0 -254 0 -254 -32 22
c-188 125 -403 130 -587 13 -174 -111 -265 -312 -233 -520 16 -106 60 -191
142 -273 173 -172 404 -207 624 -95 38 20 71 33 75 30 3 -4 7 -999 9 -2211 l3
-2204 94 0 95 0 0 2375 0 2375 754 0 c415 0 757 -3 759 -7 2 -5 2 -342 -1
-750 l-5 -742 -61 -21 c-130 -43 -248 -146 -309 -270 -32 -65 -32 -65 -32
-226 l0 -160 35 -69 c63 -125 190 -228 329 -269 70 -21 202 -21 272 0 225 66
379 266 379 494 0 227 -144 430 -355 502 l-50 17 -8 741 c-5 416 -5 746 0 751
5 5 344 6 765 2 l756 -6 12 -41 c33 -114 124 -230 231 -298 99 -63 130 -70
290 -66 l144 3 71 38 c123 65 222 188 260 322 l19 65 337 0 338 0 0 -332 c0
-183 -3 -701 -7 -1150 l-6 -818 -451 0 c-248 0 -630 -3 -848 -7 l-398 -6 0
-1224 0 -1223 95 0 95 0 0 1140 0 1140 858 0 c472 0 1197 -3 1610 -7 l752 -6
0 -1134 0 -1133 95 0 95 0 0 1225 0 1225 -850 0 -850 0 0 1155 0 1155 333 0
332 0 18 -66 c56 -214 271 -375 501 -374 214 1 413 148 491 362 l23 63 761 3
761 2 0 -749 0 -749 -52 -17 c-315 -102 -460 -458 -306 -747 88 -166 256 -267
443 -268 151 0 252 37 347 127 122 115 178 238 178 387 0 224 -131 411 -342
490 l-63 24 -7 53 c-3 30 -6 368 -7 752 l-1 697 760 0 760 0 0 -2375 0 -2375
95 0 95 0 0 2210 c0 1444 3 2210 10 2210 5 0 31 -13 57 -29 85 -51 146 -66
268 -65 87 0 122 4 168 21 158 59 312 230 333 370 l6 43 339 0 339 0 0 -2340
0 -2340 850 0 850 0 0 -40 0 -40 95 0 95 0 0 135 0 135 -855 0 -855 0 0 2245
0 2245 760 0 760 0 0 -845 0 -845 1711 -2 1710 -3 28 -71 c120 -308 455 -435
744 -282 76 41 173 144 217 233 l35 70 0 150 c0 171 -7 193 -89 302 -57 75
-130 136 -211 174 -58 28 -66 29 -206 29 l-146 0 -74 -37 c-105 -52 -196 -145
-249 -254 -22 -45 -40 -88 -40 -95 0 -6 -10 -15 -22 -19 -13 -4 -742 -9 -1620
-12 l-1598 -5 0 756 0 756 2340 0 2340 0 0 -1160 0 -1160 850 0 850 0 0 -1220
0 -1220 95 0 95 0 0 1178 c0 647 -3 1234 -7 1305 l-6 127 -843 0 c-464 0 -844
3 -846 8 -2 4 -2 487 0 1075 l4 1067 759 0 760 0 -6 -403 c-3 -221 -8 -421
-11 -443 -5 -40 -7 -42 -65 -63 -137 -50 -247 -152 -311 -288 -28 -60 -30 -68
-30 -204 l0 -142 41 -82 c48 -98 145 -196 244 -247 l62 -33 160 0 c154 0 162
1 216 27 181 90 299 277 299 477 0 206 -113 379 -311 475 l-96 47 -6 121 c-4
67 -7 264 -7 440 l0 318 760 0 760 0 0 -435 0 -435 945 0 945 0 0 435 0 435
760 0 760 0 0 -2019 0 -2019 -61 -21 c-264 -89 -414 -380 -334 -649 l16 -52
109 0 109 0 -24 36 c-31 46 -40 89 -39 190 1 100 24 152 95 219 75 70 126 90
234 90 78 0 97 -4 140 -27 62 -32 129 -103 158 -166 18 -37 22 -66 22 -137 0
-82 -3 -95 -32 -147 l-31 -58 108 0 108 0 16 47 c24 69 22 257 -3 327 -53 153
-224 310 -368 341 l-33 7 0 2019 0 2019 1621 0 1621 0 -7 -77 c-9 -120 -8
-117 -68 -136 -74 -23 -162 -82 -225 -151 -106 -116 -136 -203 -130 -375 3
-98 6 -112 40 -185 69 -143 207 -255 360 -291 254 -60 507 80 600 330 32 85
31 252 -1 345 -54 157 -164 267 -325 326 l-61 22 -3 94 -3 94 48 13 c56 14 83
34 112 82 l21 34 0 1747 c0 961 3 1749 8 1751 4 2 303 2 665 -1 l657 -5 -1
-2171 c0 -1194 -4 -2193 -7 -2220 -6 -43 -11 -51 -33 -57 -92 -24 -240 -137
-298 -227 -131 -205 -95 -483 87 -653 98 -93 177 -128 300 -135 191 -11 290
24 413 145 112 112 159 215 159 356 0 143 -56 280 -156 379 -56 57 -104 86
-215 134 l-46 19 -6 399 c-4 220 -8 1209 -8 2199 -1 990 -4 1847 -8 1905 l-6
105 -655 6 c-360 3 -699 7 -753 8 l-97 1 2 1678 3 1677 758 3 757 2 0 2293 c0
1262 3 2415 7 2564 l6 271 56 22 c128 51 216 121 283 224 53 82 78 169 78 270
0 219 -103 378 -312 483 -45 23 -69 27 -164 31 -130 5 -192 -6 -283 -51 -128
-62 -240 -210 -270 -355 -51 -248 114 -530 351 -600 l58 -17 0 -2477 0 -2478
-665 0 -665 0 0 406 0 406 73 72 c55 54 83 91 115 155 l42 83 0 142 c0 130 -2
145 -25 195 -38 81 -109 176 -160 212 l-45 32 0 661 c0 624 -1 663 -19 696
-23 43 -72 78 -123 86 l-38 7 0 336 c0 185 -3 495 -7 689 l-6 352 -944 0 -943
0 0 -685 0 -685 -760 0 -760 0 0 1824 0 1824 -87 4 c-49 2 -91 3 -95 1 -5 -2
-8 -827 -8 -1834 l0 -1829 -554 0 -554 0 -36 76 c-49 104 -137 191 -243 242
l-78 37 -145 0 -145 0 -78 -37 c-106 -51 -181 -126 -233 -235 l-39 -82 -557 0
-558 -1 0 2315 0 2315 -95 0 -95 0 0 -2315 0 -2315 -1400 0 -1400 0 0 1363 0
1363 49 13 c101 26 236 130 301 231 61 96 92 252 71 365 -17 92 -74 198 -145
269 -199 198 -500 207 -713 21 -103 -91 -160 -209 -170 -355 -15 -228 121
-434 343 -517 l74 -28 0 -1362 0 -1363 -845 0 -845 0 0 2315 0 2315 -95 0 -95
0 0 -2315 0 -2315 -755 0 -755 0 0 2315 0 2315 -95 0 -95 0 0 -2315 0 -2315
-760 0 -760 0 0 2315 0 2315 -95 0 -95 0 0 -2315 0 -2315 -760 0 -760 0 0
2315 0 2315 -90 0 -90 0 0 -2315 0 -2315 -760 0 -760 0 0 2315 0 2315 -95 0
-95 0 0 -2315 0 -2315 -760 0 -760 0 0 2315 0 2315 -95 0 -95 0 0 -2315 0
-2315 -570 0 c-313 0 -570 2 -570 5 0 3 10 34 22 68 30 88 30 227 0 318 -56
164 -198 300 -354 339 l-48 12 0 1944 0 1944 -89 0 -88 0 -6 -1917 c-4 -1055
-9 -1930 -13 -1945 -3 -16 -12 -28 -19 -28 -7 0 -50 -19 -96 -42 -103 -51
-209 -152 -254 -243 -28 -57 -30 -68 -33 -207 -3 -131 -2 -151 17 -193 12 -26
21 -49 21 -51 0 -2 -557 -4 -1238 -4 l-1238 0 24 72 c21 64 24 86 20 178 -5
119 -26 186 -86 274 -62 91 -177 173 -289 206 l-43 13 0 1944 0 1943 -95 0
-95 0 0 -1868 c0 -1028 -3 -1903 -6 -1945 -5 -58 -11 -77 -22 -77 -26 0 -136
-59 -200 -107 -111 -86 -170 -187 -193 -333 -12 -81 0 -188 31 -257 l19 -43
-268 0 c-261 0 -269 -1 -312 -23 -27 -15 -52 -38 -66 -63 l-23 -39 0 -1132 0
-1133 -240 0 -240 0 0 3510 0 3510 -90 0 -90 0 0 -3605z m17471 2513 c69 -32
134 -94 162 -157 32 -70 31 -218 -2 -285 -33 -66 -91 -122 -160 -154 -46 -22
-71 -26 -141 -27 -106 0 -169 26 -234 95 -55 58 -81 109 -94 180 -30 162 69
316 238 371 52 17 172 5 231 -23z m11531 -922 c71 -34 130 -99 159 -175 31
-83 24 -205 -16 -279 -87 -159 -278 -220 -441 -141 -55 26 -129 106 -159 172
-79 168 26 386 215 448 14 5 61 7 105 5 62 -2 93 -9 137 -30z m-1942 -2021 l0
-595 -765 0 -765 0 0 595 0 595 765 0 765 0 0 -595z m-25140 -61 c130 -60 204
-167 204 -293 0 -81 -14 -132 -54 -194 l-30 -47 -248 0 -248 0 -27 43 c-88
135 -69 312 46 425 92 90 244 119 357 66z m3420 -5 c122 -57 189 -149 198
-271 5 -79 -14 -149 -59 -215 l-30 -43 -244 0 -243 0 -31 47 c-44 66 -54 107
-49 204 4 102 23 145 93 215 97 98 239 122 365 63z m16823 -379 c45 -23 106
-77 139 -122 l19 -28 -296 0 -297 0 17 28 c44 69 124 128 194 143 63 14 178 3
224 -21z m-12980 -1894 c88 -26 187 -71 240 -108 16 -11 30 -18 32 -16 2 2 13
24 23 48 34 78 77 110 148 110 47 0 90 -24 109 -60 14 -26 15 -80 13 -381 l-3
-351 -33 -29 c-31 -28 -36 -29 -128 -29 -95 0 -96 0 -129 33 -22 22 -36 47
-40 73 -14 87 -56 202 -92 254 -97 138 -281 209 -470 181 -153 -23 -266 -102
-325 -227 -26 -56 -30 -73 -26 -132 4 -83 34 -146 95 -208 81 -80 169 -113
525 -194 311 -70 394 -108 528 -240 84 -84 142 -182 182 -310 29 -95 32 -269
5 -370 -69 -262 -280 -460 -557 -525 -185 -43 -533 6 -720 100 -38 19 -73 35
-77 35 -5 0 -24 -28 -43 -61 -38 -68 -70 -89 -130 -89 -54 0 -92 21 -114 62
-16 30 -17 64 -14 381 l3 349 33 29 c31 28 36 29 130 29 98 0 98 0 129 -32 27
-28 32 -45 42 -117 26 -197 130 -309 341 -367 50 -14 103 -18 230 -19 155 0
168 1 214 24 63 31 166 133 194 191 70 148 33 352 -85 461 -70 64 -146 92
-433 160 -402 94 -474 124 -611 259 -159 158 -223 383 -169 594 31 121 82 208
180 306 167 167 321 223 590 215 98 -3 144 -9 213 -29z m6197 24 c113 -18 242
-66 337 -124 l42 -26 28 57 c39 79 80 106 152 100 45 -3 59 -9 82 -34 26 -30
27 -37 34 -179 4 -82 5 -243 1 -359 l-6 -209 -32 -33 c-32 -33 -32 -33 -128
-33 -136 0 -149 12 -181 158 -43 198 -160 329 -329 370 -182 44 -347 10 -458
-93 -81 -75 -115 -145 -116 -238 0 -88 22 -140 87 -212 80 -90 142 -113 534
-204 116 -28 242 -62 280 -77 201 -79 350 -241 424 -459 21 -61 24 -88 24
-210 -1 -124 -4 -149 -27 -218 -84 -249 -286 -427 -551 -484 -88 -19 -310 -13
-435 12 -104 20 -234 64 -305 102 l-54 29 -29 -54 c-16 -30 -42 -65 -59 -79
-26 -22 -36 -25 -89 -21 -51 4 -63 9 -87 35 -37 43 -42 96 -38 451 l4 291 34
35 35 36 96 0 c136 0 162 -23 173 -154 8 -82 48 -174 101 -234 86 -95 264
-152 477 -152 145 0 200 15 277 78 76 62 88 76 125 152 30 60 32 73 32 165 0
89 -4 107 -29 162 -35 76 -118 159 -196 195 -30 14 -156 49 -280 78 -124 28
-265 63 -314 76 -302 84 -492 290 -526 571 -37 304 169 603 485 707 104 33
282 45 405 26z m2444 -14 c92 -21 192 -69 239 -114 123 -118 173 -381 183
-972 11 -598 -25 -991 -110 -1176 -55 -120 -160 -189 -336 -220 -136 -25 -613
-25 -750 0 -272 48 -364 168 -415 539 -46 335 -46 1077 0 1406 57 404 162 517
516 551 148 14 590 5 673 -14z m9630 -43 c28 -81 18 -220 -19 -268 -13 -18
-14 -2 -15 153 0 101 4 171 9 168 5 -4 16 -27 25 -53z m-15504 -11 l40 -39 0
-258 c0 -241 -1 -260 -20 -290 -29 -46 -64 -58 -165 -54 -83 4 -88 5 -116 37
l-29 32 0 150 0 150 -450 0 -450 0 2 -357 3 -358 233 -3 232 -2 0 52 c0 76 16
123 51 152 27 23 39 26 112 26 64 0 89 -4 114 -20 61 -37 63 -50 63 -355 0
-371 -2 -375 -171 -375 -82 0 -100 3 -122 20 -31 25 -47 75 -47 148 l0 52
-232 -2 -233 -3 -3 -402 -2 -403 489 0 489 0 7 180 c6 160 10 183 28 206 28
36 76 54 139 53 74 0 118 -18 145 -58 23 -33 23 -39 23 -313 0 -301 -3 -318
-54 -352 -23 -15 -105 -16 -915 -16 l-891 0 -32 29 c-31 28 -33 34 -36 108 -4
74 -2 81 23 111 32 39 77 52 178 52 l77 0 0 915 0 915 -77 0 c-150 0 -194 30
-201 134 -5 75 11 131 41 149 33 18 217 23 1004 25 l712 2 41 -38z m946 11
c71 -38 48 22 423 -1078 98 -286 208 -617 245 -735 37 -118 71 -224 76 -235 5
-11 9 366 9 871 l1 891 -97 5 c-96 5 -97 6 -130 42 -30 33 -33 41 -33 102 0
77 18 123 59 147 26 15 65 17 343 17 l315 0 39 -34 c37 -32 39 -35 42 -107 3
-65 1 -78 -20 -109 -30 -44 -72 -59 -165 -59 l-73 -1 0 -1021 c0 -1019 0
-1022 -21 -1055 -11 -19 -31 -39 -42 -46 -31 -17 -223 -23 -275 -9 -60 17
-107 62 -131 126 -85 227 -565 1644 -625 1845 l-35 115 0 -892 -1 -893 73 -1
c130 -1 177 -34 185 -132 5 -67 -11 -120 -45 -147 -25 -19 -40 -20 -349 -20
-229 0 -331 3 -349 12 -40 18 -55 57 -55 142 0 69 2 77 29 104 34 33 66 42
157 42 l64 0 0 914 0 913 -89 5 c-70 4 -96 10 -120 27 -37 26 -44 49 -44 127
1 89 28 131 98 148 11 2 128 4 260 3 226 -2 242 -4 281 -24z m6748 3 c151 -42
257 -101 356 -196 159 -154 229 -349 200 -559 -13 -94 -29 -140 -77 -223 -41
-71 -101 -140 -163 -191 l-48 -39 54 -71 c113 -151 134 -228 134 -509 0 -254
17 -338 70 -365 38 -19 51 2 61 99 7 78 10 85 43 116 35 31 38 32 125 32 82 0
92 -2 120 -26 45 -38 55 -87 38 -187 -44 -252 -213 -382 -439 -337 -131 25
-229 102 -288 225 -47 98 -57 168 -64 421 -3 150 -10 242 -18 260 -37 87 -113
157 -198 182 -19 6 -119 14 -222 17 l-188 7 0 -386 0 -386 73 -1 c93 0 136
-15 164 -58 42 -62 26 -187 -28 -225 -21 -14 -67 -16 -382 -16 l-359 0 -29 29
c-27 28 -29 34 -29 114 0 70 4 89 20 110 26 33 75 47 163 47 l67 0 0 914 0
914 -90 4 c-70 3 -96 9 -118 24 -37 28 -56 91 -47 160 9 71 37 105 96 115 24
4 247 6 494 4 380 -2 459 -5 509 -19z m-19452 -2586 c82 -25 147 -81 185 -158
25 -51 28 -68 28 -157 0 -118 -14 -155 -87 -226 -75 -74 -125 -94 -238 -94
-80 0 -102 4 -138 23 -67 35 -129 98 -159 161 -37 75 -39 190 -5 265 78 171
235 242 414 186z m9902 -1590 c114 -12 235 -50 333 -106 43 -25 79 -41 81 -37
1 4 15 30 30 58 47 85 117 114 197 81 64 -27 65 -36 65 -421 l0 -345 -34 -38
-34 -37 -97 0 -97 0 -32 35 c-25 28 -35 53 -50 120 -44 210 -161 339 -342 380
-27 7 -89 11 -139 11 -184 0 -320 -76 -396 -221 -19 -36 -24 -61 -24 -125 0
-97 23 -152 96 -225 81 -81 145 -103 616 -214 87 -20 184 -50 225 -69 192 -89
322 -242 390 -457 19 -63 23 -95 22 -200 -1 -107 -5 -137 -27 -205 -105 -315
-373 -505 -715 -505 -206 0 -400 40 -560 117 -41 19 -75 33 -76 31 -2 -2 -16
-27 -32 -56 -38 -73 -65 -92 -126 -92 -60 0 -103 21 -123 60 -21 41 -22 673
-1 723 22 54 53 67 156 67 88 0 91 -1 125 -32 32 -30 35 -40 45 -116 23 -197
129 -311 340 -369 50 -13 104 -18 230 -18 154 0 168 2 213 24 69 34 162 123
192 185 96 196 17 434 -178 533 -27 13 -142 46 -256 73 -330 78 -410 99 -476
129 -262 119 -418 365 -402 632 10 163 73 295 202 424 168 169 380 235 659
205z m4343 -10 c18 -10 39 -30 49 -44 9 -15 82 -323 165 -698 82 -370 186
-840 231 -1044 l82 -372 89 -7 c78 -6 92 -10 120 -35 31 -28 32 -30 32 -115 0
-85 -1 -87 -33 -116 l-32 -29 -335 0 -334 0 -28 24 c-25 21 -28 31 -31 100 -7
128 18 158 139 171 l66 7 -9 46 c-5 26 -17 83 -26 127 l-18 80 -290 3 -290 2
-27 -123 c-15 -67 -27 -125 -27 -129 0 -3 30 -9 68 -13 37 -4 75 -11 85 -17
34 -18 57 -70 57 -130 0 -66 -10 -98 -41 -127 -22 -20 -32 -21 -350 -21 -233
0 -336 3 -354 12 -38 17 -55 58 -55 133 0 74 17 116 53 132 13 6 61 15 106 18
l81 8 10 36 c5 20 101 455 214 966 113 512 213 967 224 1012 35 148 57 162
247 163 111 0 135 -3 162 -20z m-2467 -35 c53 -28 70 -60 70 -137 0 -122 -40
-158 -179 -158 l-81 0 0 -355 0 -355 390 0 390 0 0 355 0 355 -75 0 c-82 0
-129 15 -160 50 -16 18 -20 36 -19 99 0 86 11 114 57 141 30 19 53 20 366 20
317 0 335 -1 366 -20 42 -26 59 -68 58 -145 -1 -109 -45 -145 -178 -145 l-75
0 0 -915 0 -915 53 0 c125 -1 180 -31 197 -107 14 -61 -2 -142 -34 -170 l-27
-23 -359 0 -360 0 -30 28 c-25 23 -31 37 -36 92 -7 76 10 129 49 155 16 10 57
18 116 22 l91 6 0 403 0 404 -390 0 -390 0 0 -405 0 -405 58 0 c96 -1 143 -15
175 -50 28 -31 29 -36 25 -117 -3 -78 -5 -87 -31 -109 l-28 -24 -355 0 c-405
0 -405 0 -425 72 -6 24 -9 69 -7 101 7 95 55 125 201 127 l57 0 0 915 0 915
-81 0 c-144 0 -184 38 -177 166 3 65 7 77 31 101 25 26 35 28 130 34 56 3 211
6 345 7 198 2 248 -1 272 -13z m4518 -10 c214 -51 413 -206 502 -389 50 -104
59 -147 60 -276 0 -193 -49 -309 -196 -456 l-90 -92 48 -63 c59 -79 104 -161
118 -219 6 -25 15 -162 19 -305 8 -282 15 -317 66 -351 39 -25 53 -5 64 96 9
79 12 87 45 117 34 32 39 33 116 33 130 0 170 -35 170 -147 0 -159 -81 -312
-202 -379 -49 -27 -60 -29 -158 -29 -86 1 -116 5 -162 24 -83 32 -160 106
-203 194 -55 113 -62 160 -70 423 -8 274 -16 305 -90 373 -88 81 -105 86 -332
89 l-203 3 0 -379 0 -379 83 -6 c92 -6 130 -19 151 -51 38 -59 31 -173 -14
-218 l-28 -28 -361 0 -360 0 -27 23 c-49 42 -53 193 -6 240 22 22 86 35 170
36 l52 1 0 915 0 915 -75 0 c-129 0 -176 33 -183 129 -5 67 9 120 39 147 29
26 180 33 634 28 274 -3 375 -7 423 -19z m2813 -14 l44 -39 3 -238 c4 -264 -1
-298 -49 -338 -28 -24 -39 -26 -116 -26 -60 0 -93 5 -112 16 -50 30 -56 48
-59 207 l-4 147 -444 0 -444 0 0 -360 0 -360 235 0 235 0 0 76 c0 76 0 77 40
116 l40 40 91 -3 c90 -4 91 -4 125 -41 l34 -38 0 -300 0 -300 -34 -38 -34 -37
-90 0 c-139 0 -172 30 -172 154 l0 71 -235 0 -235 0 0 -405 0 -405 490 0 490
0 0 171 c0 154 2 175 20 204 27 44 70 60 157 59 77 -1 110 -15 139 -58 19 -30
31 -331 19 -499 -7 -101 -9 -111 -37 -143 l-30 -34 -900 0 -900 0 -27 28 c-42
41 -52 152 -19 214 16 32 68 50 164 55 l94 6 0 913 0 914 -85 0 c-95 0 -145
15 -168 52 -35 55 -28 181 12 222 21 20 31 21 374 26 193 3 575 7 848 8 l496
2 44 -39z m-20792 -2677 c71 -31 142 -101 173 -171 31 -68 31 -199 1 -265 -30
-66 -104 -141 -166 -169 -76 -35 -201 -34 -277 2 -117 55 -190 169 -190 296 0
161 83 273 238 324 73 24 142 19 221 -17z m-417 -1423 c150 -72 220 -242 169
-411 -42 -137 -160 -220 -311 -220 -132 0 -244 69 -300 185 -36 72 -39 180 -9
259 35 94 121 175 219 207 48 16 181 4 232 -20z m4448 -394 c0 -31 -55 -120
-97 -157 -25 -21 -70 -48 -99 -60 -61 -22 -164 -27 -227 -9 -72 20 -195 142
-212 212 l-7 27 321 0 c257 0 321 -3 321 -13z m2554 -9 c-25 -82 -95 -159
-184 -203 -50 -25 -61 -27 -146 -23 -76 4 -100 10 -144 34 -28 15 -68 47 -87
69 -35 39 -72 108 -73 133 0 9 71 12 321 12 l320 0 -7 -22z m4272 -5 c-19 -79
-130 -189 -214 -213 -53 -14 -151 -12 -208 5 -92 28 -190 124 -210 208 l-6 27
322 0 322 0 -6 -27z m12564 -313 l0 -340 -760 0 -760 0 0 340 0 340 760 0 760
0 0 -340z m5357 -71 c52 -25 134 -105 159 -155 29 -60 31 -194 5 -265 -73
-195 -309 -268 -492 -153 -77 48 -137 153 -146 253 -11 121 62 252 175 314 89
48 205 51 299 6z m1714 -625 c93 -51 169 -160 184 -265 9 -62 -17 -161 -58
-222 -56 -83 -176 -147 -275 -147 -36 0 -119 23 -157 43 -58 30 -114 88 -144
149 -74 147 -17 341 125 424 107 63 230 69 325 18z m-10294 -50 c108 -37 185
-121 218 -238 41 -144 -39 -313 -180 -378 -41 -19 -66 -23 -145 -22 -111 0
-147 13 -215 75 -62 57 -93 113 -103 185 -24 180 71 334 238 385 44 13 138 10
187 -7z m-2669 -219 c65 -35 107 -81 141 -155 36 -79 36 -192 -1 -271 -35 -76
-85 -129 -155 -164 -50 -25 -70 -29 -143 -29 -73 -1 -93 3 -142 27 -205 100
-253 374 -94 533 73 73 135 95 251 91 77 -2 98 -7 143 -32z m-15835 -411 c66
-22 158 -108 187 -176 18 -40 23 -72 23 -130 1 -66 -4 -85 -31 -141 -72 -146
-225 -220 -373 -183 -137 35 -222 125 -249 262 -21 109 14 220 95 299 94 90
210 114 348 69z m6864 -15 c127 -61 199 -207 172 -353 -13 -76 -36 -120 -89
-173 -134 -134 -349 -129 -479 12 -69 74 -84 120 -79 234 5 113 22 153 95 222
66 63 98 81 157 88 87 11 156 2 223 -30z"/>
<path d="M27130 13240 c-156 -19 -240 -88 -275 -225 -32 -129 -38 -210 -42
-622 -8 -676 20 -883 133 -982 54 -47 120 -69 251 -83 151 -16 297 1 383 44
106 54 145 124 178 321 14 87 17 176 16 612 0 472 -2 518 -21 623 -37 197 -88
266 -221 296 -85 19 -304 28 -402 16z"/>
<path d="M29010 12819 l0 -381 193 4 c164 4 201 8 251 27 126 45 228 137 267
239 46 123 4 282 -99 373 -105 92 -205 119 -439 119 l-173 0 0 -381z"/>
<path d="M24132 8830 c-18 -145 -90 -536 -157 -850 -30 -144 -55 -264 -55
-266 0 -2 102 -4 226 -4 193 0 225 2 221 14 -3 8 -33 144 -66 303 -85 409
-144 744 -153 873 -2 19 -9 -12 -16 -70z"/>
<path d="M25860 8590 l0 -380 165 0 c90 0 188 5 217 11 131 27 260 120 313
226 26 51 30 69 30 143 0 74 -4 93 -29 145 -54 110 -166 191 -305 221 -41 8
-128 14 -228 14 l-163 0 0 -380z"/>
<path d="M43517 18083 c-4 -995 -7 -2488 -7 -3319 l0 -1511 -157 -6 c-87 -4
-399 -7 -693 -7 -294 0 -605 -3 -691 -7 l-156 -6 -5 -2644 c-3 -1454 -8 -2647
-12 -2650 -3 -3 -386 -8 -851 -11 l-845 -5 0 -2738 0 -2739 588 0 c323 0 705
-3 850 -7 l262 -6 0 -1214 0 -1213 90 0 90 0 0 1304 0 1303 -837 7 c-461 4
-840 10 -842 12 -23 22 -27 5082 -5 5104 9 9 241 13 846 17 l835 6 6 651 c4
358 7 1550 7 2649 l0 1997 850 0 850 0 0 3420 0 3420 -83 0 -84 0 -6 -1807z"/>
<path d="M46719 19020 c-253 -39 -449 -263 -449 -515 0 -219 159 -434 367
-498 l63 -19 -2 -1620 -3 -1620 -56 -18 c-301 -93 -456 -447 -317 -724 104
-207 325 -322 553 -286 105 16 187 60 276 149 109 109 141 180 147 321 7 169
-22 264 -116 376 -61 74 -149 135 -237 164 l-65 22 0 1618 0 1618 64 22 c248
82 403 339 352 586 -8 43 -29 106 -45 139 -98 196 -321 316 -532 285z m216
-220 c63 -31 124 -92 155 -155 34 -69 36 -207 3 -277 -92 -200 -360 -257 -523
-111 -73 65 -102 128 -108 228 -5 99 19 170 80 239 69 79 137 106 258 103 67
-2 96 -7 135 -27z m-9 -4265 c63 -31 138 -109 166 -173 29 -65 35 -164 13
-237 -13 -46 -28 -69 -73 -115 -135 -135 -294 -150 -437 -42 -124 94 -170 244
-116 383 69 180 279 266 447 184z"/>
<path d="M40810 19004 c-131 -34 -261 -129 -324 -236 -91 -155 -96 -346 -14
-500 64 -119 189 -230 295 -258 26 -7 51 -16 54 -19 4 -3 10 -733 13 -1623 l7
-1616 -38 -12 c-139 -45 -275 -156 -332 -271 -33 -68 -61 -178 -61 -244 0 -61
26 -158 61 -228 39 -77 154 -194 226 -231 262 -132 569 -25 702 245 38 77 43
95 48 180 7 112 -5 174 -48 264 -61 124 -192 239 -311 272 l-58 16 0 1623 0
1623 42 12 c74 20 137 58 212 130 144 136 196 306 151 497 -22 93 -60 159
-134 233 -134 134 -320 188 -491 143z m279 -209 c60 -33 109 -86 143 -154 19
-38 23 -62 23 -141 0 -84 -3 -102 -28 -152 -33 -67 -80 -111 -157 -147 -76
-36 -202 -37 -271 -3 -71 35 -122 84 -160 154 -31 58 -34 70 -34 148 0 66 5
96 22 132 31 67 96 133 167 169 57 29 66 30 151 27 76 -3 98 -8 144 -33z m-36
-4255 c76 -29 130 -79 169 -158 30 -60 33 -75 33 -157 0 -78 -4 -97 -28 -147
-30 -62 -83 -115 -149 -150 -36 -19 -58 -23 -138 -23 -82 0 -103 4 -150 26
-67 31 -131 94 -162 157 -32 66 -31 204 1 277 35 80 113 150 200 181 56 20
162 17 224 -6z"/>
<path d="M45210 15619 c-185 -24 -363 -201 -410 -407 -16 -67 -8 -190 15 -257
38 -110 127 -225 221 -285 26 -16 78 -41 115 -56 l69 -26 0 -983 c0 -776 3
-985 13 -992 6 -4 387 -11 845 -14 459 -4 836 -10 839 -13 4 -3 8 -336 11
-739 l5 -734 -399 -6 c-220 -4 -605 -7 -856 -7 l-458 0 0 -1054 0 -1054 -52
-17 c-76 -25 -180 -88 -237 -145 -56 -56 -103 -146 -126 -241 -59 -253 75
-503 327 -605 54 -23 77 -26 178 -26 79 1 129 6 159 16 217 78 361 279 361
503 0 230 -146 422 -377 498 l-53 17 0 957 0 958 272 6 c149 4 532 7 850 7
l578 0 0 923 0 924 -397 6 c-219 4 -602 7 -850 7 l-453 0 1 883 c1 485 4 892
7 905 5 16 28 32 82 55 149 65 221 133 291 274 37 76 43 96 47 167 14 290
-172 526 -438 556 -94 11 -89 11 -180 -1z m241 -211 c72 -33 119 -75 155 -140
27 -49 29 -61 29 -153 0 -90 -3 -105 -28 -153 -35 -67 -90 -122 -153 -153 -41
-20 -64 -24 -144 -24 -79 0 -103 4 -142 23 -94 46 -182 174 -195 281 -6 56 24
154 68 218 83 121 268 166 410 101z m-19 -6624 c69 -22 131 -82 175 -171 32
-64 37 -85 37 -142 0 -121 -81 -249 -189 -300 -73 -35 -182 -40 -257 -12 -179
68 -265 255 -199 432 65 172 245 252 433 193z"/>
<path d="M43451 12518 c-322 -123 -457 -449 -306 -737 58 -110 129 -175 262
-238 l113 -54 0 -3799 0 -3800 938 2 937 3 3 1083 2 1082 760 0 760 0 0 -2667
0 -2668 -63 -24 c-275 -106 -413 -375 -332 -649 l16 -52 110 0 110 0 -19 28
c-36 53 -47 95 -46 182 0 64 6 97 22 132 28 63 95 134 157 166 43 23 62 27
140 27 78 0 98 -4 146 -28 66 -32 132 -99 162 -165 17 -36 22 -66 22 -132 0
-76 -4 -93 -31 -148 l-31 -62 107 0 107 0 19 63 c55 180 -4 386 -152 530 -55
53 -161 111 -223 122 l-41 7 0 2759 0 2759 -940 0 -940 0 0 -1080 0 -1080
-765 0 -765 0 0 3710 c0 2972 2 3710 13 3710 6 0 57 22 113 49 81 40 112 62
160 113 101 109 144 215 144 358 0 151 -52 272 -160 374 -106 100 -226 146
-375 145 -56 0 -96 -6 -134 -21z m227 -172 c108 -29 183 -93 231 -196 20 -43
25 -71 26 -130 0 -66 -5 -85 -33 -142 -40 -81 -102 -139 -181 -169 -45 -17
-71 -20 -136 -17 -133 7 -225 71 -281 193 -85 186 9 391 209 454 75 24 97 25
165 7z"/>
<path d="M41800 7509 c-87 -14 -194 -72 -266 -144 -162 -163 -200 -415 -92
-617 55 -103 194 -213 316 -249 l42 -12 0 -1307 0 -1307 -42 -13 c-139 -41
-260 -143 -322 -272 -139 -290 -2 -616 302 -719 51 -18 90 -23 162 -23 190 0
333 80 441 246 55 85 61 119 57 292 -3 146 -4 153 -33 205 -66 120 -202 235
-317 269 l-58 17 0 1305 0 1305 51 12 c120 29 260 147 323 274 l36 72 0 157
c0 154 -1 158 -30 216 -71 142 -205 252 -345 282 -78 17 -165 21 -225 11z
m248 -214 c195 -106 239 -372 87 -528 -20 -20 -60 -50 -88 -65 -47 -24 -62
-27 -152 -27 -92 0 -104 2 -154 30 -116 64 -175 172 -169 310 4 94 30 155 92
217 73 73 141 98 251 95 66 -3 90 -8 133 -32z m-4 -3634 c243 -118 241 -479
-2 -598 -50 -24 -69 -28 -147 -28 -78 0 -97 4 -147 28 -71 35 -131 101 -159
176 -29 78 -24 195 11 265 32 63 130 152 190 171 65 21 196 14 254 -14z"/>
<path d="M34762 3075 c-191 -42 -370 -231 -393 -417 -5 -41 -5 -107 1 -160 13
-126 49 -200 144 -293 158 -156 350 -199 550 -124 133 49 271 196 313 332 l16
54 510 6 c281 4 1007 7 1614 7 l1103 0 0 -1240 0 -1240 98 0 97 0 -3 1322 c-2
728 -5 1324 -7 1326 -1 1 -769 5 -1707 9 l-1705 6 -12 48 c-30 117 -158 267
-276 324 -113 54 -220 67 -343 40z m260 -208 c70 -31 124 -85 157 -156 22 -48
26 -70 26 -146 0 -73 -5 -99 -23 -136 -37 -75 -87 -125 -159 -161 -58 -28 -77
-33 -143 -33 -126 1 -235 66 -295 177 -37 68 -46 181 -20 260 32 98 107 177
204 214 56 22 186 12 253 -19z"/>
<path d="M36918 2155 c-332 -67 -518 -433 -372 -732 62 -129 173 -228 307
-274 l67 -24 0 -347 0 -348 -855 0 -855 0 0 -215 0 -215 95 0 95 0 0 120 0
120 848 0 849 0 6 112 c4 62 7 262 7 443 l0 330 62 20 c127 40 243 142 308
270 l35 69 0 161 0 160 -35 65 c-44 83 -156 196 -235 237 -99 52 -220 70 -327
48z m238 -210 c61 -27 117 -82 152 -150 33 -66 42 -189 18 -261 -26 -80 -82
-144 -158 -183 -175 -89 -364 -28 -450 147 -29 58 -33 76 -33 147 0 66 5 90
26 135 78 164 279 239 445 165z"/>
<path d="M21395 1979 c-146 -22 -316 -152 -386 -295 -33 -67 -34 -73 -37 -208
-3 -121 -1 -145 18 -195 43 -115 157 -236 281 -299 52 -25 61 -26 209 -27
l155 0 75 40 c127 68 216 171 266 309 l22 61 1572 3 c865 1 1592 -1 1617 -5
43 -8 45 -10 68 -68 34 -81 107 -186 165 -235 99 -83 209 -114 376 -108 95 3
107 6 180 43 184 94 284 261 284 475 0 152 -44 257 -149 360 -166 163 -391
196 -603 89 -113 -57 -224 -194 -268 -332 l-12 -37 -1616 2 -1616 3 -21 61
c-85 245 -332 400 -580 363z m179 -201 c80 -20 169 -99 210 -187 16 -36 21
-65 21 -136 0 -78 -4 -97 -27 -140 -32 -62 -103 -129 -166 -158 -72 -33 -198
-31 -272 4 -74 35 -120 76 -155 141 -25 45 -30 67 -33 144 -4 83 -2 97 23 153
42 92 132 166 232 190 40 10 102 6 167 -11z m4282 -5 c108 -36 178 -109 209
-218 46 -155 -28 -321 -174 -392 -76 -38 -199 -40 -278 -4 -98 43 -175 151
-198 274 -9 46 23 154 64 218 33 52 103 106 165 125 58 18 154 17 212 -3z"/>
<path d="M840 1961 c-81 -26 -130 -54 -190 -108 -175 -157 -225 -406 -124
-619 55 -116 203 -242 322 -274 61 -16 217 -13 286 5 161 42 292 168 347 332
l20 61 82 7 c45 3 774 5 1621 3 l1538 -3 22 -61 c52 -144 163 -264 298 -325
48 -21 67 -23 203 -24 l150 0 68 33 c99 49 194 147 249 258 l43 87 0 127 0
127 -42 84 c-99 198 -264 309 -462 309 -191 0 -360 -93 -451 -250 -20 -36 -48
-91 -61 -122 l-23 -58 -1617 0 -1617 0 -12 48 c-31 123 -150 271 -262 325
-122 58 -277 74 -388 38z m270 -190 c78 -30 134 -81 172 -159 30 -59 33 -76
33 -152 0 -71 -4 -94 -26 -141 -33 -71 -87 -125 -158 -158 -48 -22 -70 -26
-146 -26 -78 0 -97 4 -141 27 -99 52 -186 187 -188 292 -1 76 37 167 97 232
100 110 218 138 357 85z m4238 11 c163 -51 250 -175 240 -341 -7 -123 -65
-215 -170 -272 -59 -32 -69 -34 -153 -34 -116 0 -175 25 -245 102 -80 88 -109
215 -75 330 30 101 123 187 235 217 73 20 98 19 168 -2z"/>
<path d="M45235 1590 c-75 -12 -147 -43 -218 -94 -81 -57 -138 -125 -180 -212
-32 -68 -32 -71 -32 -214 l0 -145 44 -83 c66 -125 183 -221 344 -281 l27 -11
0 -275 0 -275 90 0 90 0 0 278 0 279 59 16 c77 22 205 108 254 172 21 28 54
83 74 124 30 62 36 87 40 160 10 164 -33 287 -138 396 -116 121 -303 189 -454
165z m200 -207 c33 -11 66 -32 100 -67 114 -114 141 -248 77 -378 -32 -66 -96
-134 -154 -164 -15 -8 -54 -20 -88 -28 -52 -12 -68 -12 -122 0 -114 27 -187
87 -237 194 -53 115 -25 272 63 364 97 99 218 125 361 79z"/>
<path d="M31766 1579 c-129 -30 -274 -151 -341 -284 -38 -75 -40 -82 -44 -191
-3 -93 1 -125 18 -182 48 -158 189 -302 342 -348 l59 -18 0 -278 0 -278 90 0
90 0 2 276 3 276 62 23 c133 48 259 162 320 291 l35 72 -4 144 c-3 139 -4 145
-36 209 -66 131 -189 239 -320 279 -69 22 -204 26 -276 9z m195 -183 c103 -24
181 -84 231 -179 19 -35 23 -58 23 -142 0 -117 -19 -167 -91 -239 -69 -70
-123 -91 -229 -91 -78 0 -97 4 -147 28 -70 34 -140 110 -162 174 -21 60 -21
187 -1 244 33 94 90 149 202 195 67 27 96 29 174 10z"/>
<path d="M13163 1435 c-186 -40 -353 -209 -392 -393 -57 -275 93 -528 367
-617 l52 -17 0 -204 0 -204 90 0 90 0 0 203 0 203 80 33 c322 131 442 487 260
771 -69 107 -182 186 -316 220 -89 23 -143 24 -231 5z m261 -214 c118 -58 181
-160 180 -296 0 -98 -22 -152 -91 -226 -72 -77 -128 -100 -238 -100 -127 0
-239 70 -296 186 -30 61 -31 69 -27 152 5 100 32 167 93 228 68 67 143 96 242
91 57 -2 86 -10 137 -35z"/>
<path d="M40015 30 c-125 -20 -101 -29 80 -28 163 0 176 1 138 13 -57 18 -158
25 -218 15z"/>
</g>
</svg>
